<svg width="21" height="21" viewBox="0 0 21 21" fill="none" xmlns="http://www.w3.org/2000/svg">
<path d="M3.5 6.90685C3.5 6.08935 3.5 5.6806 3.65224 5.31306C3.80448 4.94552 4.09351 4.65649 4.67157 4.07843L4.95343 3.79657C5.53149 3.21851 5.82052 2.92948 6.18806 2.77724C6.5556 2.625 6.96435 2.625 7.78185 2.625H13.2181C14.0356 2.625 14.4444 2.625 14.8119 2.77724C15.1795 2.92948 15.4685 3.21851 16.0466 3.79657L16.3284 4.07843C16.9065 4.65649 17.1955 4.94552 17.3478 5.31306C17.5 5.6806 17.5 6.08935 17.5 6.90685V14.375C17.5 16.2606 17.5 17.2034 16.9142 17.7892C16.3284 18.375 15.3856 18.375 13.5 18.375H7.5C5.61438 18.375 4.67157 18.375 4.08579 17.7892C3.5 17.2034 3.5 16.2606 3.5 14.375V6.90685Z" stroke="#286CF0"/>
<path d="M3.5 6.125H17.5" stroke="#286CF0" stroke-linecap="round"/>
<path d="M7.875 9.625C7.875 10.3212 8.15156 10.9889 8.64384 11.4812C9.13613 11.9734 9.80381 12.25 10.5 12.25C11.1962 12.25 11.8639 11.9734 12.3562 11.4812C12.8484 10.9889 13.125 10.3212 13.125 9.625" stroke="#286CF0" stroke-linecap="round"/>
</svg>
