<svg width="108" height="36" viewBox="0 0 108 36" fill="none" xmlns="http://www.w3.org/2000/svg">
<path d="M46.7346 35.1822H37.938L43.4358 1.39451H52.2334L46.7346 35.1822ZM30.5376 1.39451L22.1513 24.6339L21.1589 19.6296L21.1598 19.6314L18.1998 4.43671C18.1998 4.43671 17.8419 1.39451 14.027 1.39451H0.162684L0 1.96662C0 1.96662 4.23973 2.84872 9.2016 5.82856L16.8441 35.1831H26.0096L40.0049 1.39451H30.5376ZM99.7281 35.1822H107.805L100.763 1.39361H93.6916C90.4262 1.39361 89.6309 3.9116 89.6309 3.9116L76.5113 35.1822H85.6812L87.5151 30.1634H98.6978L99.7281 35.1822ZM90.0484 23.2303L94.6704 10.5862L97.2707 23.2303H90.0484ZM77.1991 9.51968L78.4544 2.26396C78.4544 2.26396 74.5808 0.790771 70.5426 0.790771C66.1772 0.790771 55.8106 2.69869 55.8106 11.9762C55.8106 20.7051 67.9776 20.8136 67.9776 25.3986C67.9776 29.9835 57.0642 29.162 53.4625 26.2707L52.1547 33.8572C52.1547 33.8572 56.0827 35.7652 62.0839 35.7652C68.0869 35.7652 77.143 32.657 77.143 24.1974C77.143 15.4125 64.8667 14.5945 64.8667 10.7751C64.8676 6.9547 73.4347 7.44546 77.1991 9.51968Z" fill="white"/>
</svg>
