<svg width="356" height="85" viewBox="0 0 356 85" fill="none" xmlns="http://www.w3.org/2000/svg">
<path fill-rule="evenodd" clip-rule="evenodd" d="M4.14473 0H351.743C354.023 0 355.888 1.86504 355.888 4.14499V80.1904C355.888 82.4704 354.023 84.3354 351.743 84.3354H4.14473C1.86504 84.3354 0 82.4704 0 80.1904V4.14499C0 1.86504 1.86504 0 4.14473 0Z" fill="#1390F0"/>
<path d="M66.372 30.2563C66.6129 30.0673 66.9223 30.1275 67.3002 30.4369C67.7817 30.8493 68.2629 31.4853 68.7443 32.3447C69.2255 33.2044 69.6637 34.1753 70.0591 35.2584C70.4545 36.3412 70.7725 37.4842 71.0131 38.6874C71.2537 39.8907 71.3741 41.0423 71.3741 42.1425C71.3741 44.7207 70.8927 47.1358 69.9303 49.3877C68.9677 51.6393 67.6441 53.5987 65.9596 55.2662C64.275 56.9334 62.3069 58.2484 60.0553 59.211C57.8035 60.1737 55.3884 60.6549 52.8102 60.6549C50.2317 60.6549 47.8167 60.1737 45.565 59.211C43.3132 58.2484 41.3538 56.9334 39.6863 55.2662C38.0191 53.5987 36.7041 51.6393 35.7417 49.3877C34.7791 47.1358 34.2976 44.7207 34.2976 42.1425C34.2976 39.564 34.7791 37.1404 35.7417 34.8716C36.7041 32.6028 38.0191 30.6345 39.6863 28.9673C41.3538 27.2998 43.3132 25.9764 45.565 24.9966C47.8167 24.0168 50.2317 23.527 52.8102 23.527C55.7666 23.527 58.5169 24.163 61.0607 25.4348C61.5763 25.7098 61.714 26.1396 61.4734 26.724C61.4045 26.8272 61.2755 27.0678 61.0865 27.4461C60.8976 27.824 60.6825 28.228 60.4419 28.6579C60.2013 29.0875 59.9693 29.4915 59.7459 29.8697C59.5223 30.2477 59.3763 30.4885 59.3075 30.5915C59.1699 30.8665 58.9465 31.0127 58.6371 31.0299C58.3277 31.0471 58.0182 30.9869 57.7088 30.8493C56.1621 30.1619 54.529 29.8181 52.8102 29.8181C51.1255 29.8181 49.5443 30.1447 48.0661 30.7979C46.5876 31.4509 45.29 32.3361 44.1726 33.4536C43.0554 34.5708 42.1788 35.8772 41.5427 37.3726C40.9067 38.8681 40.5887 40.4579 40.5887 42.1425C40.5887 43.8269 40.9067 45.4084 41.5427 46.8866C42.1788 48.3648 43.0554 49.6627 44.1726 50.7799C45.29 51.8971 46.5876 52.7737 48.0661 53.4097C49.5443 54.0457 51.1255 54.3637 52.8102 54.3637C54.4946 54.3637 56.0846 54.0457 57.5801 53.4097C59.0755 52.7737 60.3731 51.8971 61.4734 50.7799C62.5734 49.6627 63.45 48.3648 64.1032 46.8866C64.7564 45.4084 65.083 43.8269 65.083 42.1425C65.083 41.4893 65.0142 40.8103 64.8766 40.1054C64.7392 39.4009 64.5672 38.7218 64.361 38.0686C64.1548 37.4154 63.9142 36.8138 63.6392 36.2638C63.3639 35.7138 63.0889 35.2842 62.8139 34.9748C62.6422 34.8028 62.5389 34.6224 62.5045 34.4331C62.4701 34.2442 62.4873 34.081 62.5562 33.9434C62.8145 33.427 65.6323 30.8381 66.372 30.2563Z" fill="black"/>
<path d="M76.4575 25.1168C76.4575 24.8418 76.5521 24.6098 76.7411 24.4206C76.9301 24.2316 77.1624 24.137 77.4374 24.137H81.9236C82.1986 24.137 82.4392 24.2316 82.6454 24.4206C82.8519 24.6098 82.9548 24.8418 82.9548 25.1168V38.3695C82.9548 38.6445 83.0667 38.8334 83.29 38.9367C83.5134 39.0399 83.7285 38.9883 83.9347 38.7821L96.5169 24.5496H96.5685C96.7747 24.2746 97.0497 24.137 97.3935 24.137H102.602C102.946 24.137 103.195 24.2918 103.349 24.6012C103.504 24.9106 103.461 25.2028 103.221 25.4778L90.2258 40.2775C89.882 40.6555 89.7274 40.9649 89.7618 41.2055C89.796 41.4463 89.9336 41.7041 90.1742 41.9791C90.243 42.0823 90.6298 42.5549 91.3344 43.3971C92.0392 44.2393 92.89 45.2708 93.8871 46.4912C94.8841 47.7116 95.9669 49.0178 97.1357 50.4103C98.3045 51.8025 99.3959 53.1089 100.41 54.3294C101.424 55.5498 102.284 56.5896 102.988 57.449C103.693 58.3084 104.097 58.7898 104.2 58.8928C104.372 59.1681 104.389 59.4603 104.252 59.7697C104.114 60.0791 103.857 60.2337 103.478 60.2337H97.8061C97.3935 60.2337 97.1357 60.1476 97.0325 59.9758L95.3825 57.9648C94.9699 57.449 94.4457 56.8044 93.8097 56.031C93.1736 55.2576 92.4002 54.3036 91.4892 53.1691C90.5782 52.0345 89.5037 50.7025 88.2664 49.1727C87.0287 47.6428 85.6019 45.8638 83.9863 43.8356C83.8143 43.6291 83.5995 43.5606 83.3417 43.6291C83.0839 43.6979 82.9548 43.8872 82.9548 44.1963V59.2538C82.9548 59.5288 82.8519 59.7611 82.6454 59.9501C82.4392 60.139 82.1986 60.2337 81.9236 60.2337H77.4374C77.1624 60.2337 76.9301 60.139 76.7411 59.9501C76.5521 59.7611 76.4575 59.5288 76.4575 59.2538V25.1168Z" fill="black"/>
<path d="M138.441 24.1482C138.612 24.1482 138.775 24.2256 138.93 24.3804C139.085 24.535 139.162 24.6984 139.162 24.8702V60.0903C139.162 60.2621 139.085 60.4166 138.93 60.5543C138.775 60.6919 138.612 60.7604 138.441 60.7604H137.615C137.065 60.7604 136.584 60.5543 136.171 60.1416L115.545 37.4008C115.51 37.332 115.407 37.2979 115.235 37.2979C115.098 37.3664 115.029 37.4696 115.029 37.6073L114.978 59.5228C114.978 59.6948 114.909 59.858 114.771 60.0129C114.634 60.1674 114.462 60.2449 114.256 60.2449H109.512C109.34 60.2449 109.176 60.1674 109.022 60.0129C108.867 59.858 108.789 59.6948 108.789 59.5228V24.303C108.789 24.131 108.867 23.9764 109.022 23.8388C109.176 23.7014 109.34 23.6326 109.512 23.6326H110.44C110.955 23.6326 111.402 23.8388 111.781 24.2514L132.356 46.5798C132.424 46.7172 132.527 46.7516 132.665 46.6828C132.768 46.6484 132.82 46.5626 132.82 46.425L132.871 24.8702C132.871 24.6984 132.94 24.535 133.077 24.3804C133.215 24.2256 133.387 24.1482 133.593 24.1482H138.441Z" fill="black"/>
<path fill-rule="evenodd" clip-rule="evenodd" d="M177.106 59.2596C177.21 59.5346 177.192 59.7668 177.055 59.9558C176.918 60.1451 176.711 60.2394 176.436 60.2394H171.898C171.279 60.2394 170.849 59.9472 170.608 59.3631L170.299 58.6408C170.127 58.2626 169.878 57.704 169.551 56.9647C165.565 47.9436 166.27 49.6075 160.293 36.4123C160.225 36.3096 160.13 36.2577 160.01 36.2577C159.889 36.2577 159.795 36.3096 159.727 36.4123L154.517 47.9135C154.449 47.982 154.441 48.0691 154.492 48.1715C154.542 48.2735 154.638 48.3261 154.775 48.3261C157.385 48.3261 158.572 48.3261 161.182 48.3261C161.844 48.339 162.082 48.4799 162.243 48.87C162.888 50.331 163.248 51.1181 163.894 52.5794C164.14 53.1451 164.111 53.5405 163.341 53.5349H152.145C152.02 53.5349 151.926 53.6032 151.887 53.6895L149.309 59.3631C149.205 59.6032 149.059 59.8098 148.87 59.9814C148.681 60.1534 148.414 60.2394 148.071 60.2394H143.532C143.257 60.2394 143.051 60.1534 142.913 59.9814C142.776 59.8098 142.776 59.5865 142.913 59.311C142.913 59.3271 144.423 55.9454 144.925 54.85C145.578 53.4231 146.506 51.4032 147.71 48.7903C148.913 46.1772 150.443 42.8678 152.299 38.8625C154.156 34.8566 156.443 29.9312 159.159 24.0863C159.296 23.8113 159.503 23.674 159.778 23.674H160.293C160.534 23.674 160.698 23.717 160.783 23.803C160.87 23.8885 160.947 23.9834 161.016 24.0863C161.016 24.0863 161.041 24.1382 161.093 24.2409C161.145 24.3444 161.316 24.7223 161.609 25.3756C161.901 26.029 162.374 27.0693 163.027 28.496C163.68 29.9228 164.6 31.9427 165.786 34.5558C166.972 37.1687 168.485 40.4781 170.325 44.4839C172.164 48.4893 174.425 53.4148 177.106 59.2596Z" fill="black"/>
<path fill-rule="evenodd" clip-rule="evenodd" d="M186.029 52.944C188.178 52.944 189.92 54.6861 189.92 56.8352C189.92 58.9841 188.178 60.7262 186.029 60.7262C183.88 60.7262 182.138 58.9841 182.138 56.8352C182.138 54.6861 183.88 52.944 186.029 52.944Z" fill="black"/>
<path d="M212.922 24.1237C213.128 24.1237 213.3 24.2011 213.438 24.3559C213.575 24.5105 213.644 24.6739 213.644 24.8457V29.1258C213.644 29.2976 213.575 29.4696 213.438 29.6414C213.3 29.8132 213.128 29.8992 212.922 29.8992H203.382C203.176 29.8992 203.073 30.0024 203.073 30.2086V59.4983C203.073 59.6703 203.004 59.8335 202.867 59.9883C202.729 60.1429 202.557 60.2203 202.351 60.2203H197.607C197.435 60.2203 197.272 60.1429 197.117 59.9883C196.962 59.8335 196.885 59.6703 196.885 59.4983V30.2086C196.885 30.0024 196.782 29.8992 196.575 29.8992H186.984C186.778 29.8992 186.598 29.8132 186.443 29.6414C186.288 29.4696 186.211 29.2976 186.211 29.1258V24.8457C186.211 24.6739 186.288 24.5105 186.443 24.3559C186.598 24.2011 186.778 24.1237 186.984 24.1237H212.922Z" fill="white"/>
<path d="M321.566 59.4678C321.669 60.0178 321.445 60.2928 320.895 60.2928H316.1C315.928 60.2928 315.773 60.224 315.635 60.0866C315.498 59.949 315.412 59.8116 315.378 59.674L312.284 39.9757C312.284 39.838 312.215 39.7523 312.077 39.7179C311.94 39.6835 311.837 39.7351 311.768 39.8724L302.434 60.396C302.297 60.671 302.091 60.8084 301.816 60.8084H300.887C300.612 60.8084 300.406 60.671 300.269 60.396C300.234 60.3616 300.2 60.31 300.166 60.2412C300.131 60.1724 300.028 59.9404 299.856 59.545C299.684 59.1498 299.418 58.5482 299.057 57.7404C298.696 56.9323 298.172 55.7721 297.484 54.2595C296.796 52.7469 295.928 50.8305 294.88 48.5098C293.831 46.1894 292.551 43.3103 291.038 39.8724C290.97 39.7351 290.866 39.6835 290.729 39.7179C290.591 39.7523 290.505 39.838 290.471 39.9757L287.274 59.7256C287.24 59.863 287.162 59.992 287.042 60.1124C286.922 60.2326 286.776 60.2928 286.603 60.2928H281.911C281.739 60.2928 281.567 60.1982 281.395 60.0092C281.223 59.8202 281.172 59.6052 281.241 59.3646L287.274 24.2477C287.343 23.8695 287.566 23.6805 287.944 23.6805H289.44C289.749 23.6805 289.973 23.801 290.11 24.0416L301.042 48.6904C301.214 48.9998 301.403 48.9998 301.609 48.6904C303.431 44.5993 304.978 41.1445 306.25 38.3254C307.522 35.5066 308.562 33.1859 309.37 31.3639C310.178 29.5421 310.805 28.141 311.252 27.1614C311.699 26.1816 312.026 25.4596 312.232 24.9956C312.438 24.5313 312.567 24.2649 312.619 24.1961C312.67 24.1276 312.696 24.076 312.696 24.0416C312.799 23.801 313.023 23.6805 313.367 23.6805H314.81C315.189 23.6805 315.412 23.8695 315.481 24.2477C316.237 28.6483 316.907 32.5243 317.492 35.876C318.076 39.2278 318.575 42.1415 318.987 44.6165C319.4 47.0918 319.752 49.1716 320.045 50.856C320.337 52.5407 320.586 53.9329 320.792 55.0332L321.566 59.4678Z" fill="white"/>
<path d="M224.892 29.9192C224.686 29.9192 224.583 30.0224 224.583 30.2286V38.6856C224.583 38.8918 224.686 38.995 224.892 38.995H236.805C236.976 38.995 237.14 39.0724 237.294 39.227C237.449 39.3818 237.526 39.545 237.526 39.7168V44.1001C237.526 44.3063 237.449 44.4783 237.294 44.6157C237.14 44.7533 236.976 44.8219 236.805 44.8219H224.892C224.686 44.8219 224.583 44.9251 224.583 45.1313V54.1554C224.583 54.3619 224.686 54.4648 224.892 54.4648H239.331C239.538 54.4648 239.709 54.5509 239.847 54.7226C239.984 54.8947 240.053 55.0665 240.053 55.2385V59.5183C240.053 59.6904 239.984 59.8535 239.847 60.0084C239.709 60.1629 239.538 60.2404 239.331 60.2404H219.117C218.911 60.2404 218.739 60.1629 218.601 60.0084C218.464 59.8535 218.395 59.6904 218.395 59.5183V24.8657C218.395 24.6939 218.464 24.5305 218.601 24.3759C218.739 24.2211 218.911 24.1437 219.117 24.1437H239.331C239.538 24.1437 239.709 24.2211 239.847 24.3759C239.984 24.5305 240.053 24.6939 240.053 24.8657V29.1458C240.053 29.3176 239.984 29.4896 239.847 29.6614C239.709 29.8332 239.538 29.9192 239.331 29.9192H224.892Z" fill="white"/>
<path fill-rule="evenodd" clip-rule="evenodd" d="M243.536 59.2622C243.433 59.5372 243.45 59.7694 243.588 59.9584C243.725 60.1476 243.932 60.242 244.207 60.242H248.745C249.364 60.242 249.793 59.9498 250.034 59.3656L250.344 58.6433C250.516 58.2651 250.765 57.7065 251.092 56.9673C255.078 47.9461 254.373 49.6101 260.349 36.4148C260.418 36.3121 260.512 36.2603 260.633 36.2603C260.753 36.2603 260.848 36.3121 260.916 36.4148L266.126 47.916C266.194 47.9846 266.202 48.0716 266.151 48.1741C266.101 48.276 266.005 48.3287 265.867 48.3287C263.257 48.3287 262.07 48.3287 259.46 48.3287C258.799 48.3416 258.561 48.4825 258.4 48.8726C257.754 50.3336 257.395 51.1207 256.749 52.5819C256.503 53.1476 256.532 53.5431 257.301 53.5375H268.498C268.623 53.5375 268.716 53.6058 268.756 53.6921L271.334 59.3656C271.438 59.6057 271.583 59.8124 271.773 59.9839C271.962 60.156 272.228 60.242 272.572 60.242H277.11C277.386 60.242 277.592 60.156 277.729 59.9839C277.867 59.8124 277.867 59.589 277.729 59.3135C277.729 59.3482 277.704 59.3052 277.652 59.1848C277.6 59.0646 277.429 58.6689 277.136 57.9987C276.844 57.3283 276.371 56.2797 275.718 54.8525C275.065 53.4257 274.136 51.4058 272.933 48.7929C271.73 46.1798 270.2 42.8704 268.343 38.8651C266.486 34.8592 264.2 29.9337 261.484 24.0889C261.346 23.8139 261.14 23.6765 260.865 23.6765H260.349C260.108 23.6765 259.945 23.7195 259.859 23.8055C259.773 23.8911 259.696 23.9859 259.627 24.0889C259.627 24.0889 259.601 24.1408 259.55 24.2435C259.498 24.3469 259.326 24.7249 259.034 25.3781C258.741 26.0316 258.269 27.0719 257.616 28.4985C256.962 29.9254 256.043 31.9453 254.856 34.5584C253.67 37.1713 252.158 40.4806 250.318 44.4865C248.478 48.4918 246.218 53.4173 243.536 59.2622Z" fill="white"/>
</svg>
