<svg width="30" height="22" viewBox="0 0 30 22" fill="none" xmlns="http://www.w3.org/2000/svg">
<path d="M4.09094 3.32556H6.27276V15.093H23.4546V6.90696L24 5.11626L23.4546 4.60463V3.32556H25.9091V21.4883H4.09094V3.32556Z" fill="#FF7678"/>
<path d="M17.1818 12.5347L20.7272 7.59752L20.7545 6.13938L22.9363 4.37427L23.9727 5.0138L23.1818 7.59752L21.7636 8.21148L18.2727 12.7905L17.1818 12.5347Z" fill="#8BD9F2"/>
<path d="M12.8182 14.8372V9.56744C13.8545 9.10697 14.5636 8.16046 14.5636 7.03488C14.5636 5.9093 13.8545 4.96278 12.8182 4.50232V7.16278H10.0909V4.5279C9.05455 4.98837 8.34546 5.93488 8.34546 7.06046C8.34546 8.18604 9.05455 9.13255 10.0909 9.59302V14.8372H12.8182Z" fill="#8BD9F2"/>
<path d="M21.0818 0.255859H19.6363V0.767487H18.5454V0.690743C18.5454 0.434929 18.3273 0.255859 18.0818 0.255859H14.3182C13.3091 0.281441 11.8363 1.45818 10.4454 2.55819C12.2727 2.30237 14.7273 2.04656 15.2727 2.55819C15.5454 2.814 15.5454 3.14656 15.5454 3.58144H18.5454V2.30237H19.6363V2.814H21.0818C21.3545 2.814 21.5454 2.60935 21.5454 2.37912V0.690743C21.5454 0.460511 21.3272 0.255859 21.0818 0.255859Z" fill="#8BD9F2"/>
<path d="M6.40905 21.7442C6.19086 21.7442 5.99996 21.5651 5.99996 21.3605V3.58141H4.36359V21.3605C4.36359 21.5651 4.17268 21.7442 3.9545 21.7442C3.73632 21.7442 3.54541 21.5651 3.54541 21.3605V3.19769C3.54541 2.99303 3.73632 2.81396 3.9545 2.81396H6.40905C6.62723 2.81396 6.81814 2.99303 6.81814 3.19769V21.3605C6.81814 21.5651 6.62723 21.7442 6.40905 21.7442Z" fill="#1C2947"/>
<path d="M26.0454 21.7442C25.8272 21.7442 25.6363 21.5651 25.6363 21.3605V3.58141H23.5909C23.3727 3.58141 23.1818 3.40234 23.1818 3.19769C23.1818 2.99303 23.3727 2.81396 23.5909 2.81396H26.0454C26.2636 2.81396 26.4545 2.99303 26.4545 3.19769V21.3605C26.4545 21.5651 26.2636 21.7442 26.0454 21.7442Z" fill="#1C2947"/>
<path d="M23.5909 21.7442C23.3727 21.7442 23.1818 21.5651 23.1818 21.3605V8.56976C23.1818 8.3651 23.3727 8.18604 23.5909 8.18604C23.809 8.18604 23.9999 8.3651 23.9999 8.56976V21.3605C23.9999 21.5651 23.809 21.7442 23.5909 21.7442Z" fill="#1C2947"/>
<path d="M29.5909 22H0.409091C0.190909 22 0 21.8209 0 21.6163C0 21.4116 0.190909 21.2325 0.409091 21.2325H29.5909C29.8091 21.2325 30 21.4116 30 21.6163C30 21.8209 29.8091 22 29.5909 22Z" fill="#1C2947"/>
<path d="M21.6818 15.6047H6.6818C6.46361 15.6047 6.27271 15.4257 6.27271 15.221C6.27271 15.0164 6.46361 14.8373 6.6818 14.8373H21.6818C21.9 14.8373 22.0909 15.0164 22.0909 15.221C22.0909 15.4257 21.9 15.6047 21.6818 15.6047Z" fill="#1C2947"/>
<path d="M23.3182 18.9302H19.7727C19.5546 18.9302 19.3636 18.7511 19.3636 18.5464C19.3636 18.3418 19.5546 18.1627 19.7727 18.1627H23.3182C23.5364 18.1627 23.7273 18.3418 23.7273 18.5464C23.7273 18.7511 23.5364 18.9302 23.3182 18.9302Z" fill="#1C2947"/>
<path d="M17.0454 18.9302H6.6818C6.46361 18.9302 6.27271 18.7511 6.27271 18.5464C6.27271 18.3418 6.46361 18.1627 6.6818 18.1627H17.0454C17.2636 18.1627 17.4545 18.3418 17.4545 18.5464C17.4545 18.7511 17.2636 18.9302 17.0454 18.9302Z" fill="#1C2947"/>
<path d="M9.95459 15.093C9.73641 15.093 9.5455 14.914 9.5455 14.7093V9.66979C8.48187 9.107 7.80005 8.05816 7.80005 6.907C7.80005 5.67909 8.56368 4.57909 9.76368 4.04188C9.90005 3.99072 10.0364 3.99072 10.1455 4.06746C10.2546 4.14421 10.3364 4.27212 10.3364 4.40002V6.65119H12.2455V4.40002C12.2455 4.27212 12.3273 4.14421 12.4364 4.06746C12.5455 3.99072 12.7091 3.99072 12.8182 4.04188C14.0455 4.57909 14.7819 5.67909 14.7819 6.907C14.7819 8.05816 14.1273 9.08142 13.0364 9.66979V13.9419C13.0364 14.1465 12.8455 14.3256 12.6273 14.3256C12.4091 14.3256 12.2728 14.1465 12.2728 13.9419V9.43956C12.2728 9.28607 12.3546 9.15816 12.5182 9.08142C13.4455 8.67212 14.0182 7.82793 14.0182 6.907C14.0182 6.19072 13.691 5.5256 13.091 5.09072V7.03491C13.091 7.23956 12.9 7.41863 12.6819 7.41863H9.95459C9.73641 7.41863 9.5455 7.23956 9.5455 7.03491V5.09072C8.97278 5.55119 8.61823 6.19072 8.61823 6.907C8.61823 7.82793 9.19096 8.67212 10.1182 9.08142C10.2546 9.13258 10.3637 9.28607 10.3637 9.43956V14.7093C10.3637 14.914 10.1728 15.093 9.95459 15.093Z" fill="#1C2947"/>
<path d="M17.3182 12.5348C17.2364 12.5348 17.1545 12.5092 17.1 12.458C16.9091 12.3301 16.8545 12.0999 16.9909 11.9208L20.1818 7.46966L20.2091 6.11385C20.2091 6.01152 20.2636 5.9092 20.3455 5.83245L22.5545 4.09292C22.6909 3.99059 22.8818 3.96501 23.0455 4.06734L24.0818 4.68129C24.2455 4.78362 24.3 4.93711 24.2455 5.11618L23.4545 7.6999C23.4273 7.80222 23.3455 7.90455 23.2364 7.93013L21.8182 8.54408C21.6 8.62083 21.3818 8.54408 21.2727 8.36501C21.1909 8.16036 21.2727 7.95571 21.4636 7.85339L22.7182 7.31618L23.3727 5.16734L22.8273 4.86036L21 6.3185V7.59757C21 7.67432 20.9727 7.75106 20.9182 7.80222L17.6455 12.3557C17.5909 12.4836 17.4545 12.5348 17.3182 12.5348Z" fill="#1C2947"/>
<path d="M18.6819 4.09302H15.6819C15.4637 4.09302 15.2728 3.91395 15.2728 3.7093C15.2728 3.3 15.2728 3.09535 15.1092 2.96744C15.0001 2.83953 14.3455 2.55814 10.6364 3.06977C10.4455 3.09535 10.2819 2.99302 10.2001 2.83953C10.1182 2.68605 10.1728 2.50698 10.3092 2.37907L10.6364 2.12326C12.0273 1.04884 13.3637 0.0255814 14.4546 0H18.2182C18.5728 0 18.9001 0.204651 19.0364 0.511628H19.3637V0.383721C19.3637 0.17907 19.5546 0 19.7728 0H21.2182C21.6819 0 22.091 0.383721 22.091 0.818605V2.4814C22.091 2.94186 21.6819 3.3 21.2182 3.3H19.7728C19.5546 3.3 19.3637 3.12093 19.3637 2.91628V2.81395H19.091V3.7093C19.091 3.91395 18.9001 4.09302 18.6819 4.09302ZM16.091 3.32558H18.2728V2.43023C18.2728 2.22558 18.4637 2.04651 18.6819 2.04651H19.7728C19.991 2.04651 20.1819 2.22558 20.1819 2.43023V2.55814H21.2182C21.2455 2.55814 21.2728 2.53256 21.2728 2.50698V0.818605C21.2728 0.793023 21.2455 0.767442 21.2182 0.767442H20.1819V0.895349C20.1819 1.1 19.991 1.27907 19.7728 1.27907H18.6819C18.4637 1.27907 18.2728 1.1 18.2728 0.895349V0.818605C18.2728 0.793023 18.2455 0.767442 18.2182 0.767442H14.4546C13.8273 0.793023 12.8728 1.40698 11.9455 2.12326C14.6455 1.84186 15.3819 2.09767 15.7092 2.40465C15.9819 2.68605 16.0637 2.99302 16.091 3.32558Z" fill="#1C2947"/>
<path d="M18.4091 8.95351C18.1909 8.95351 18 8.77444 18 8.56979V3.96514C18 3.76049 18.1909 3.58142 18.4091 3.58142C18.6273 3.58142 18.8182 3.76049 18.8182 3.96514V8.56979C18.8182 8.77444 18.6273 8.95351 18.4091 8.95351Z" fill="#1C2947"/>
<path d="M15.9545 12.5349C15.7363 12.5349 15.5454 12.3558 15.5454 12.1512V3.96514C15.5454 3.76049 15.7363 3.58142 15.9545 3.58142C16.1727 3.58142 16.3636 3.76049 16.3636 3.96514V12.1512C16.3636 12.3558 16.1727 12.5349 15.9545 12.5349Z" fill="#1C2947"/>
<path d="M17.2637 15.4511C17.1819 15.4511 17.1 15.4255 17.0182 15.3743C16.8273 15.2464 16.8 15.0162 16.9091 14.8371L17.7273 13.7371C17.8364 13.5836 17.8091 13.379 17.6455 13.2767L16.6091 12.586C16.5273 12.5348 16.4455 12.5092 16.3364 12.5348C16.2546 12.5604 16.1728 12.586 16.1182 12.6627L14.2091 15.2209C14.0728 15.3999 13.8273 15.4255 13.6364 15.3232C13.4455 15.1953 13.4182 14.965 13.5273 14.786L15.4364 12.2278C15.6273 11.9976 15.8728 11.8185 16.2 11.7674C16.5 11.7162 16.8273 11.793 17.0728 11.9464L18.1091 12.6371C18.6273 12.9953 18.7637 13.6604 18.3819 14.172L17.5637 15.272C17.5364 15.3999 17.4 15.4511 17.2637 15.4511Z" fill="#1C2947"/>
</svg>
