<svg width="45" height="44" viewBox="0 0 45 44" fill="none" xmlns="http://www.w3.org/2000/svg">
<g clip-path="url(#clip0_145_196)">
<path d="M26.4836 33.6916L18.4718 37.2616L14.4658 26.9979L22.0326 23.8741L26.4836 33.6916Z" fill="#FF7678"/>
<path d="M42.9527 26.5517L34.9408 29.6754L30.4897 19.858L38.5016 16.7343L42.9527 26.5517Z" fill="#8BD9F2"/>
<path d="M5.20775 43.9999C5.11873 43.9999 5.02971 43.9999 4.9852 43.9553C4.80716 43.9107 4.67363 43.7768 4.62912 43.5983L0.0445488 33.4239C-0.044472 33.2454 -0.044472 33.0669 0.0445488 32.933C0.0890592 32.7545 0.22259 32.6206 0.400632 32.576L38.19 15.6632C38.546 15.5294 38.9021 15.6632 39.0802 16.0202L43.6202 26.15C43.7092 26.3285 43.7092 26.507 43.6202 26.6409C43.5757 26.8194 43.4422 26.9533 43.2641 26.9979L5.47482 43.9553C5.3858 43.9999 5.29677 43.9999 5.20775 43.9999ZM1.5579 33.5131L5.56384 42.4827L42.1514 26.1054L38.1454 17.1358L1.5579 33.5131Z" fill="#1C2947"/>
<path d="M34.6736 30.3448C34.4065 30.3448 34.184 30.2109 34.0504 29.9432L29.8665 20.572C29.7329 20.215 29.8665 19.858 30.2226 19.6795C30.5786 19.5456 30.9347 19.6795 31.1128 20.0365L35.2967 29.4077C35.4303 29.7647 35.2967 30.1217 34.9407 30.3002C34.8961 30.3448 34.8071 30.3448 34.6736 30.3448Z" fill="#1C2947"/>
<path d="M26.5728 33.9594C26.3057 33.9594 26.0831 33.8255 25.9496 33.5578L21.7656 24.1866C21.6321 23.8296 21.7656 23.4726 22.1217 23.2941C22.4778 23.1602 22.8339 23.2941 23.0119 23.6511L27.1514 33.0223C27.2849 33.3793 27.1514 33.7363 26.7953 33.9148C26.7508 33.9594 26.6618 33.9594 26.5728 33.9594Z" fill="#1C2947"/>
<path d="M18.4273 37.6187C18.1602 37.6187 17.9376 37.4848 17.8041 37.2171L13.6201 27.8459C13.4866 27.4889 13.6201 27.1319 13.9762 26.9534C14.3323 26.8195 14.6884 26.9534 14.8664 27.3104L19.0504 36.6816C19.1839 37.0386 19.0504 37.3956 18.6943 37.5741C18.6053 37.5741 18.5163 37.6187 18.4273 37.6187Z" fill="#1C2947"/>
<path d="M10.1483 27.1764C10.0148 27.1764 9.83673 27.1318 9.7032 26.9979C9.43613 26.7748 9.39162 26.3286 9.61418 26.0608L27.7744 4.86407C27.997 4.59632 28.4421 4.5517 28.7091 4.77482L37.1661 12.0487C37.2996 12.1825 37.3887 12.3164 37.3887 12.4949C37.3887 12.6734 37.3441 12.8519 37.2106 12.9858L35.3412 15.1724C35.1186 15.4401 34.6735 15.4848 34.4065 15.2616C34.1394 15.0385 34.0949 14.5923 34.3174 14.3245L35.7418 12.6288L28.353 6.24744L10.6379 26.9533C10.5044 27.0872 10.3263 27.1764 10.1483 27.1764Z" fill="#1C2947"/>
<path d="M28.8428 18.2515C28.7092 18.2515 28.5312 18.2069 28.3976 18.073L22.3887 12.8965C22.1217 12.6734 22.0772 12.2272 22.2997 11.9594C22.5223 11.6917 22.9674 11.647 23.2344 11.8702L29.2433 17.0466C29.5104 17.2698 29.5549 17.716 29.3324 17.9837C29.2433 18.1622 29.0208 18.2515 28.8428 18.2515Z" fill="#1C2947"/>
<path d="M20.2522 22.58C20.1187 22.58 19.9406 22.5354 19.8071 22.4015L16.6024 19.6348C16.3353 19.4117 16.2908 18.9654 16.5133 18.6977C16.7359 18.4299 17.181 18.3853 17.4481 18.6084L20.6528 21.3752C20.9199 21.5983 20.9644 22.0445 20.7418 22.3123C20.6083 22.4908 20.4303 22.58 20.2522 22.58Z" fill="#1C2947"/>
<path d="M43.7539 43.0183C43.7539 43.0183 43.7093 43.0183 43.7539 43.0183L15.8903 41.5903C15.5343 41.5903 15.2227 41.2779 15.2672 40.8763C15.2672 40.5193 15.5788 40.2515 15.9794 40.2515L43.1307 41.6349L43.6203 31.8175L41.3948 31.6836C41.0387 31.6836 40.7271 31.3712 40.7717 30.9696C40.7717 30.6126 41.0832 30.3002 41.4838 30.3448L44.377 30.4787C44.7331 30.4787 45.0447 30.7911 45.0001 31.1927L44.4215 42.3489C44.4215 42.5274 44.3325 42.7059 44.199 42.7951C44.0654 42.929 43.9319 43.0183 43.7539 43.0183Z" fill="#1C2947"/>
<path d="M34.8962 42.1257C34.8517 42.1257 34.8517 42.1257 34.8962 42.1257C34.4956 42.1257 34.2285 41.8133 34.2285 41.4117L34.6291 33.4685C34.6291 33.1115 34.9407 32.8438 35.3413 32.8438C35.6974 32.8438 36.0089 33.1561 35.9644 33.5577L35.5638 41.501C35.5193 41.8133 35.2523 42.1257 34.8962 42.1257Z" fill="#1C2947"/>
<path d="M25.9941 41.6348C25.9941 41.6348 25.9496 41.6348 25.9941 41.6348C25.5935 41.6348 25.3264 41.3225 25.3264 40.9209L25.549 36.6815C25.549 36.3245 25.9051 36.0121 26.2611 36.0568C26.6172 36.0568 26.9288 36.3691 26.8843 36.7707L26.6617 41.0101C26.6172 41.3671 26.3502 41.6348 25.9941 41.6348Z" fill="#1C2947"/>
<path d="M6.09793 28.4706C6.05342 28.4706 6.00891 28.4706 5.91989 28.4706C5.56381 28.3813 5.34125 28.0244 5.43027 27.6674L12.1068 0.535508C12.1513 0.357009 12.2404 0.223134 12.4184 0.133885C12.5964 1.0645e-05 12.7745 -0.0446141 12.9525 1.06469e-05L23.7686 2.6775C23.9466 2.72212 24.0801 2.81137 24.1691 2.98987C24.2582 3.12374 24.3027 3.30224 24.2582 3.48074L23.546 6.2921C23.457 6.6491 23.1009 6.87222 22.7448 6.78297C22.3887 6.69372 22.1662 6.33672 22.2552 5.97973L22.7893 3.83774L13.2641 1.47263L6.76559 27.9797C6.67657 28.2475 6.4095 28.4706 6.09793 28.4706Z" fill="#1C2947"/>
<path d="M18.7833 12.0041C18.7388 12.0041 18.6943 12.0041 18.6053 12.0041L10.905 10.0853C10.5489 9.99603 10.3264 9.63903 10.4154 9.28204C10.5044 8.92504 10.8605 8.70191 11.2166 8.79116L18.9614 10.71C19.3175 10.7993 19.54 11.1563 19.451 11.5133C19.362 11.8256 19.0949 12.0041 18.7833 12.0041Z" fill="#1C2947"/>
<path d="M13.086 19.8135C13.0415 19.8135 12.997 19.8135 12.908 19.8135L8.76852 18.7425C8.41244 18.6533 8.18989 18.2963 8.27891 17.9393C8.36793 17.5823 8.72401 17.3591 9.08009 17.4484L13.2196 18.4748C13.5756 18.564 13.7982 18.921 13.7092 19.278C13.6202 19.5904 13.3531 19.8135 13.086 19.8135Z" fill="#1C2947"/>
<path d="M7.78944 39.0465C6.7657 39.0465 5.78647 38.4664 5.34137 37.4401C4.76273 36.1013 5.34137 34.4948 6.67668 33.9147C8.01199 33.3346 9.61437 33.9147 10.193 35.2534C10.7716 36.5922 10.193 38.1987 8.85769 38.7788C8.50161 38.9573 8.14552 39.0465 7.78944 39.0465ZM7.78944 35.0303C7.6114 35.0303 7.43336 35.0749 7.25532 35.1642C6.58766 35.4766 6.27609 36.2798 6.58766 36.9492C6.89923 37.6186 7.70042 37.9309 8.36807 37.6186C9.03573 37.3062 9.3473 36.5029 9.03573 35.8336C8.76867 35.2981 8.27905 35.0303 7.78944 35.0303Z" fill="#1C2947"/>
</g>
<defs>
<clipPath id="clip0_145_196">
<rect width="45" height="44" fill="white"/>
</clipPath>
</defs>
</svg>
