<svg width="26" height="20" viewBox="0 0 26 20" fill="none" xmlns="http://www.w3.org/2000/svg">
<path d="M6.49999 12.6088H3.36206V17.174H6.49999V12.6088Z" fill="#8BD9F2"/>
<path d="M22.6379 12.6088H19.5V17.174H22.6379V12.6088Z" fill="#8BD9F2"/>
<path d="M14.5688 11.9564H11.4309V18.2608H14.5688V11.9564Z" fill="#FF7678"/>
<path d="M25.3275 10L24.8793 3.26086H1.12064L0.672363 10H8.29305V8.91304H17.4827V10H25.3275ZM12.8879 7.3913C12.462 7.3913 12.1034 7.04347 12.1034 6.63043C12.1034 6.21739 12.462 5.86956 12.8879 5.86956C13.3137 5.86956 13.6724 6.21739 13.6724 6.63043C13.6724 7.04347 13.3137 7.3913 12.8879 7.3913Z" fill="#FF7678"/>
<path d="M25.6638 20.0001H0.336207C0.156897 20.0001 0 19.8479 0 19.674C0 19.5001 0.156897 19.3479 0.336207 19.3479H25.6638C25.8431 19.3479 26 19.5001 26 19.674C26 19.8479 25.8431 20.0001 25.6638 20.0001Z" fill="#1C2947"/>
<path d="M24.543 19.7826C24.3637 19.7826 24.2068 19.6304 24.2068 19.4565V10.1087C24.2068 9.93477 24.3637 9.78259 24.543 9.78259C24.7223 9.78259 24.8792 9.93477 24.8792 10.1087V19.4565C24.8792 19.6304 24.7223 19.7826 24.543 19.7826Z" fill="#1C2947"/>
<path d="M17.5948 19.7826C17.4154 19.7826 17.2585 19.6305 17.2585 19.4565V9.02177C17.2585 8.84785 17.4154 8.69568 17.5948 8.69568C17.7741 8.69568 17.931 8.84785 17.931 9.02177V19.4565C17.931 19.6305 17.7741 19.7826 17.5948 19.7826Z" fill="#1C2947"/>
<path d="M8.4053 19.7826C8.22599 19.7826 8.06909 19.6305 8.06909 19.4565V9.02177C8.06909 8.84785 8.22599 8.69568 8.4053 8.69568C8.58461 8.69568 8.74151 8.84785 8.74151 9.02177V19.4565C8.74151 19.6305 8.58461 19.7826 8.4053 19.7826Z" fill="#1C2947"/>
<path d="M1.45681 19.5652C1.2775 19.5652 1.12061 19.413 1.12061 19.2391V10.1087C1.12061 9.93477 1.2775 9.78259 1.45681 9.78259C1.63612 9.78259 1.79302 9.93477 1.79302 10.1087V19.2391C1.79302 19.413 1.63612 19.5652 1.45681 19.5652Z" fill="#1C2947"/>
<path d="M25.4396 10.2173H18.0431C17.8638 10.2173 17.7069 10.0651 17.7069 9.89121C17.7069 9.71729 17.8638 9.56512 18.0431 9.56512H25.081L24.6776 2.6086H1.3224L0.918949 9.56512H7.28447C7.46378 9.56512 7.62067 9.71729 7.62067 9.89121C7.62067 10.0651 7.46378 10.2173 7.28447 10.2173H0.560328C0.470673 10.2173 0.381018 10.1738 0.313776 10.1086C0.246535 10.0434 0.224121 9.95642 0.224121 9.86947L0.672397 2.26077C0.672397 2.08686 0.829293 1.95642 1.0086 1.95642H24.9914C25.1707 1.95642 25.3276 2.08686 25.3276 2.26077L25.7758 9.86947C25.7758 9.95642 25.7534 10.0434 25.6862 10.1086C25.6189 10.1738 25.5293 10.2173 25.4396 10.2173Z" fill="#1C2947"/>
<path d="M6.61209 17.6086H3.25003C3.07071 17.6086 2.91382 17.4564 2.91382 17.2825V12.4999C2.91382 12.326 3.07071 12.1738 3.25003 12.1738H6.61209C6.7914 12.1738 6.9483 12.326 6.9483 12.4999V17.2825C6.9483 17.4564 6.7914 17.6086 6.61209 17.6086ZM3.58623 16.9564H6.27589V12.826H3.58623V16.9564Z" fill="#1C2947"/>
<path d="M14.6809 18.4783C14.5016 18.4783 14.3447 18.3261 14.3447 18.1522V12.1739H11.6551V18.1522C11.6551 18.3261 11.4982 18.4783 11.3189 18.4783C11.1396 18.4783 10.9827 18.3261 10.9827 18.1522V11.8478C10.9827 11.6739 11.1396 11.5217 11.3189 11.5217H14.6809C14.8603 11.5217 15.0171 11.6739 15.0171 11.8478V18.1522C15.0171 18.3261 14.8603 18.4783 14.6809 18.4783Z" fill="#1C2947"/>
<path d="M18.1551 9.13054H11.543C11.3637 9.13054 11.2068 8.97836 11.2068 8.80445C11.2068 8.63054 11.3637 8.47836 11.543 8.47836H17.3706L12.8879 3.84793L8.60682 8.47836H10.4223C10.6016 8.47836 10.7585 8.63054 10.7585 8.80445C10.7585 8.97836 10.6016 9.13054 10.4223 9.13054H7.84475C7.71027 9.13054 7.5982 9.06532 7.53096 8.93488C7.48613 8.82619 7.50855 8.67401 7.5982 8.58706L12.6413 3.15227C12.7085 3.08706 12.7982 3.04358 12.8879 3.04358C12.9775 3.04358 13.0672 3.08706 13.1344 3.15227L18.4016 8.58706C18.4913 8.67401 18.5137 8.82619 18.4689 8.93488C18.4016 9.04358 18.2896 9.13054 18.1551 9.13054Z" fill="#1C2947"/>
<path d="M16.4743 18.6958H8.4053C8.22599 18.6958 8.06909 18.5436 8.06909 18.3697C8.06909 18.1958 8.22599 18.0436 8.4053 18.0436H16.4743C16.6536 18.0436 16.8105 18.1958 16.8105 18.3697C16.8105 18.5436 16.6536 18.6958 16.4743 18.6958Z" fill="#1C2947"/>
<path d="M11.9913 15.4348H11.7671C11.5878 15.4348 11.4309 15.2826 11.4309 15.1087C11.4309 14.9348 11.5878 14.7826 11.7671 14.7826H11.9913C12.1706 14.7826 12.3275 14.9348 12.3275 15.1087C12.3275 15.2826 12.1706 15.4348 11.9913 15.4348Z" fill="#1C2947"/>
<path d="M18.4914 2.3913C18.312 2.3913 18.1551 2.23913 18.1551 2.06522V0.652174H17.2586V1.19565C17.2586 1.36957 17.1017 1.52174 16.9224 1.52174C16.7431 1.52174 16.5862 1.36957 16.5862 1.19565V0.326087C16.5862 0.152174 16.7431 0 16.9224 0H18.4914C18.6707 0 18.8276 0.152174 18.8276 0.326087V2.06522C18.8276 2.23913 18.6707 2.3913 18.4914 2.3913Z" fill="#1C2947"/>
<path d="M4.81887 17.3912C4.63956 17.3912 4.48267 17.2391 4.48267 17.0652V14.4565C4.48267 14.2825 4.63956 14.1304 4.81887 14.1304C4.99818 14.1304 5.15508 14.2825 5.15508 14.4565V17.0652C5.15508 17.2391 4.99818 17.3912 4.81887 17.3912Z" fill="#1C2947"/>
<path d="M4.81887 13.6956C4.63956 13.6956 4.48267 13.5434 4.48267 13.3695V12.7173C4.48267 12.5434 4.63956 12.3912 4.81887 12.3912C4.99818 12.3912 5.15508 12.5434 5.15508 12.7173V13.3695C5.15508 13.5434 4.99818 13.6956 4.81887 13.6956Z" fill="#1C2947"/>
<path d="M22.75 17.6086H19.388C19.2087 17.6086 19.0518 17.4564 19.0518 17.2825V12.4999C19.0518 12.326 19.2087 12.1738 19.388 12.1738H22.75C22.9293 12.1738 23.0862 12.326 23.0862 12.4999V17.2825C23.0862 17.4564 22.9293 17.6086 22.75 17.6086ZM19.7242 16.9564H22.4138V12.826H19.7242V16.9564Z" fill="#1C2947"/>
<path d="M20.9568 17.3912C20.7775 17.3912 20.6206 17.2391 20.6206 17.0652V14.4565C20.6206 14.2825 20.7775 14.1304 20.9568 14.1304C21.1361 14.1304 21.293 14.2825 21.293 14.4565V17.0652C21.293 17.2391 21.1361 17.3912 20.9568 17.3912Z" fill="#1C2947"/>
<path d="M20.9568 13.6956C20.7775 13.6956 20.6206 13.5434 20.6206 13.3695V12.7173C20.6206 12.5434 20.7775 12.3912 20.9568 12.3912C21.1361 12.3912 21.293 12.5434 21.293 12.7173V13.3695C21.293 13.5434 21.1361 13.6956 20.9568 13.6956Z" fill="#1C2947"/>
<path d="M12.888 7.82612C12.2156 7.82612 11.6553 7.28264 11.6553 6.63047C11.6553 5.97829 12.2156 5.43481 12.888 5.43481C13.5604 5.43481 14.1208 5.97829 14.1208 6.63047C14.1208 7.28264 13.5604 7.82612 12.888 7.82612ZM12.888 6.08699C12.5742 6.08699 12.3277 6.32612 12.3277 6.63047C12.3277 6.93481 12.5742 7.17394 12.888 7.17394C13.2018 7.17394 13.4484 6.93481 13.4484 6.63047C13.4484 6.32612 13.2018 6.08699 12.888 6.08699Z" fill="#1C2947"/>
<path d="M4.81896 14.7825H3.69827C3.51896 14.7825 3.36206 14.6304 3.36206 14.4565C3.36206 14.2825 3.51896 14.1304 3.69827 14.1304H4.81896C4.99827 14.1304 5.15516 14.2825 5.15516 14.4565C5.15516 14.6304 4.99827 14.7825 4.81896 14.7825Z" fill="#1C2947"/>
<path d="M20.9569 14.7825H19.8362C19.6569 14.7825 19.5 14.6304 19.5 14.4565C19.5 14.2825 19.6569 14.1304 19.8362 14.1304H20.9569C21.1362 14.1304 21.2931 14.2825 21.2931 14.4565C21.2931 14.6304 21.1362 14.7825 20.9569 14.7825Z" fill="#1C2947"/>
</svg>
