<svg width="28" height="22" viewBox="0 0 28 22" fill="none" xmlns="http://www.w3.org/2000/svg">
<path d="M3.81812 3.32556H5.85448V15.093H21.8908V6.90696L22.3999 5.11626L21.8908 4.60463V3.32556H24.1818V21.4883H3.81812V3.32556Z" fill="#FF7678"/>
<path d="M16.0364 12.5349L19.3455 7.59765L19.3709 6.13951L21.4073 4.37439L22.3746 5.01392L21.6364 7.59765L20.3127 8.2116L17.0546 12.7907L16.0364 12.5349Z" fill="#8BD9F2"/>
<path d="M11.9636 14.8372V9.56744C12.9309 9.10697 13.5927 8.16046 13.5927 7.03488C13.5927 5.9093 12.9309 4.96278 11.9636 4.50232V7.16279H9.41815V4.5279C8.45088 4.98837 7.78906 5.93488 7.78906 7.06046C7.78906 8.18604 8.45088 9.13255 9.41815 9.59302V14.8372H11.9636Z" fill="#8BD9F2"/>
<path d="M19.6763 0.255859H18.3272V0.767487H17.309V0.690743C17.309 0.434929 17.1054 0.255859 16.8763 0.255859H13.3636C12.4218 0.281441 11.0472 1.45819 9.74902 2.55819C11.4545 2.30237 13.7454 2.04656 14.2545 2.55819C14.509 2.814 14.509 3.14656 14.509 3.58144H17.309V2.30237H18.3272V2.814H19.6763C19.9308 2.814 20.109 2.60935 20.109 2.37912V0.690743C20.109 0.460511 19.9054 0.255859 19.6763 0.255859Z" fill="#8BD9F2"/>
<path d="M5.98181 21.7442C5.77817 21.7442 5.59999 21.5651 5.59999 21.3605V3.58141H4.07272V21.3605C4.07272 21.5651 3.89454 21.7442 3.6909 21.7442C3.48726 21.7442 3.30908 21.5651 3.30908 21.3605V3.19769C3.30908 2.99303 3.48726 2.81396 3.6909 2.81396H5.98181C6.18545 2.81396 6.36363 2.99303 6.36363 3.19769V21.3605C6.36363 21.5651 6.18545 21.7442 5.98181 21.7442Z" fill="#1C2947"/>
<path d="M24.3092 21.7442C24.1056 21.7442 23.9274 21.5651 23.9274 21.3605V3.58141H22.0183C21.8147 3.58141 21.6365 3.40234 21.6365 3.19769C21.6365 2.99303 21.8147 2.81396 22.0183 2.81396H24.3092C24.5128 2.81396 24.691 2.99303 24.691 3.19769V21.3605C24.691 21.5651 24.5128 21.7442 24.3092 21.7442Z" fill="#1C2947"/>
<path d="M22.0183 21.7442C21.8147 21.7442 21.6365 21.5651 21.6365 21.3605V8.56976C21.6365 8.3651 21.8147 8.18604 22.0183 8.18604C22.2219 8.18604 22.4001 8.3651 22.4001 8.56976V21.3605C22.4001 21.5651 22.2219 21.7442 22.0183 21.7442Z" fill="#1C2947"/>
<path d="M27.6182 22H0.381818C0.178182 22 0 21.8209 0 21.6163C0 21.4116 0.178182 21.2325 0.381818 21.2325H27.6182C27.8218 21.2325 28 21.4116 28 21.6163C28 21.8209 27.8218 22 27.6182 22Z" fill="#1C2947"/>
<path d="M20.2363 15.6047H6.23631C6.03267 15.6047 5.85449 15.4257 5.85449 15.221C5.85449 15.0164 6.03267 14.8373 6.23631 14.8373H20.2363C20.4399 14.8373 20.6181 15.0164 20.6181 15.221C20.6181 15.4257 20.4399 15.6047 20.2363 15.6047Z" fill="#1C2947"/>
<path d="M21.7637 18.9302H18.4546C18.2509 18.9302 18.0728 18.7511 18.0728 18.5464C18.0728 18.3418 18.2509 18.1627 18.4546 18.1627H21.7637C21.9673 18.1627 22.1455 18.3418 22.1455 18.5464C22.1455 18.7511 21.9673 18.9302 21.7637 18.9302Z" fill="#1C2947"/>
<path d="M15.909 18.9302H6.23631C6.03267 18.9302 5.85449 18.7511 5.85449 18.5464C5.85449 18.3418 6.03267 18.1627 6.23631 18.1627H15.909C16.1127 18.1627 16.2909 18.3418 16.2909 18.5464C16.2909 18.7511 16.1127 18.9302 15.909 18.9302Z" fill="#1C2947"/>
<path d="M9.29094 15.093C9.0873 15.093 8.90912 14.914 8.90912 14.7093V9.66979C7.91639 9.107 7.28003 8.05816 7.28003 6.907C7.28003 5.67909 7.99276 4.57909 9.11276 4.04188C9.24003 3.99072 9.3673 3.99072 9.46912 4.06746C9.57094 4.14421 9.6473 4.27212 9.6473 4.40002V6.65119H11.4291V4.40002C11.4291 4.27212 11.5055 4.14421 11.6073 4.06746C11.7091 3.99072 11.8618 3.99072 11.9637 4.04188C13.1091 4.57909 13.7964 5.67909 13.7964 6.907C13.7964 8.05816 13.1855 9.08142 12.1673 9.66979V13.9419C12.1673 14.1465 11.9891 14.3256 11.7855 14.3256C11.5818 14.3256 11.4546 14.1465 11.4546 13.9419V9.43956C11.4546 9.28607 11.5309 9.15816 11.6837 9.08142C12.5491 8.67212 13.0837 7.82793 13.0837 6.907C13.0837 6.19072 12.7782 5.5256 12.2182 5.09072V7.03491C12.2182 7.23956 12.04 7.41863 11.8364 7.41863H9.29094C9.0873 7.41863 8.90912 7.23956 8.90912 7.03491V5.09072C8.37457 5.55119 8.04367 6.19072 8.04367 6.907C8.04367 7.82793 8.57821 8.67212 9.44367 9.08142C9.57094 9.13258 9.67276 9.28607 9.67276 9.43956V14.7093C9.67276 14.914 9.49457 15.093 9.29094 15.093Z" fill="#1C2947"/>
<path d="M16.1638 12.5348C16.0874 12.5348 16.011 12.5092 15.9601 12.458C15.7819 12.3301 15.731 12.0999 15.8583 11.9208L18.8365 7.46966L18.8619 6.11385C18.8619 6.01152 18.9128 5.9092 18.9892 5.83245L21.051 4.09292C21.1783 3.99059 21.3565 3.96501 21.5092 4.06734L22.4765 4.68129C22.6292 4.78362 22.6801 4.93711 22.6292 5.11618L21.891 7.6999C21.8656 7.80222 21.7892 7.90455 21.6874 7.93013L20.3638 8.54408C20.1601 8.62083 19.9565 8.54408 19.8547 8.36501C19.7783 8.16036 19.8547 7.95571 20.0328 7.85338L21.2038 7.31618L21.8147 5.16734L21.3056 4.86036L19.6001 6.3185V7.59757C19.6001 7.67432 19.5747 7.75106 19.5238 7.80222L16.4692 12.3557C16.4183 12.4836 16.291 12.5348 16.1638 12.5348Z" fill="#1C2947"/>
<path d="M17.4364 4.09302H14.6364C14.4327 4.09302 14.2546 3.91395 14.2546 3.7093C14.2546 3.3 14.2546 3.09535 14.1018 2.96744C14 2.83954 13.3891 2.55814 9.92728 3.06977C9.7491 3.09535 9.59637 2.99302 9.52001 2.83954C9.44365 2.68605 9.49456 2.50698 9.62183 2.37907L9.92728 2.12326C11.2255 1.04884 12.4727 0.0255814 13.4909 0H17.0036C17.3346 0 17.64 0.204651 17.7673 0.511628H18.0727V0.383721C18.0727 0.17907 18.2509 0 18.4546 0H19.8036C20.2364 0 20.6182 0.383721 20.6182 0.818605V2.4814C20.6182 2.94186 20.2364 3.3 19.8036 3.3H18.4546C18.2509 3.3 18.0727 3.12093 18.0727 2.91628V2.81395H17.8182V3.7093C17.8182 3.91395 17.64 4.09302 17.4364 4.09302ZM15.0182 3.32558H17.0546V2.43023C17.0546 2.22558 17.2327 2.04651 17.4364 2.04651H18.4546C18.6582 2.04651 18.8364 2.22558 18.8364 2.43023V2.55814H19.8036C19.8291 2.55814 19.8546 2.53256 19.8546 2.50698V0.818605C19.8546 0.793023 19.8291 0.767442 19.8036 0.767442H18.8364V0.895349C18.8364 1.1 18.6582 1.27907 18.4546 1.27907H17.4364C17.2327 1.27907 17.0546 1.1 17.0546 0.895349V0.818605C17.0546 0.793023 17.0291 0.767442 17.0036 0.767442H13.4909C12.9055 0.793023 12.0146 1.40698 11.1491 2.12326C13.6691 1.84186 14.3564 2.09767 14.6618 2.40465C14.9164 2.68605 14.9927 2.99302 15.0182 3.32558Z" fill="#1C2947"/>
<path d="M17.1819 8.95351C16.9782 8.95351 16.8 8.77444 16.8 8.56979V3.96514C16.8 3.76049 16.9782 3.58142 17.1819 3.58142C17.3855 3.58142 17.5637 3.76049 17.5637 3.96514V8.56979C17.5637 8.77444 17.3855 8.95351 17.1819 8.95351Z" fill="#1C2947"/>
<path d="M14.8909 12.5349C14.6872 12.5349 14.509 12.3558 14.509 12.1512V3.96514C14.509 3.76049 14.6872 3.58142 14.8909 3.58142C15.0945 3.58142 15.2727 3.76049 15.2727 3.96514V12.1512C15.2727 12.3558 15.0945 12.5349 14.8909 12.5349Z" fill="#1C2947"/>
<path d="M16.1127 15.4511C16.0364 15.4511 15.96 15.4255 15.8837 15.3743C15.7055 15.2464 15.68 15.0162 15.7818 14.8371L16.5455 13.7371C16.6473 13.5836 16.6218 13.379 16.4691 13.2767L15.5018 12.586C15.4255 12.5348 15.3491 12.5092 15.2473 12.5348C15.1709 12.5604 15.0946 12.586 15.0437 12.6627L13.2618 15.2209C13.1346 15.3999 12.9055 15.4255 12.7273 15.3232C12.5491 15.1953 12.5237 14.965 12.6255 14.786L14.4073 12.2278C14.5855 11.9976 14.8146 11.8185 15.12 11.7674C15.4 11.7162 15.7055 11.793 15.9346 11.9464L16.9018 12.6371C17.3855 12.9953 17.5127 13.6604 17.1564 14.172L16.3927 15.272C16.3673 15.3999 16.24 15.4511 16.1127 15.4511Z" fill="#1C2947"/>
</svg>
