<svg width="46" height="39" viewBox="0 0 46 39" fill="none" xmlns="http://www.w3.org/2000/svg">
<g clip-path="url(#clip0_145_151)">
<path d="M5.3786 0.742798C4.7768 0.742798 4.28784 1.22566 4.28784 1.81994V3.15708L4.32545 3.19423C4.96486 3.82566 5.0777 4.79137 4.62635 5.57137C3.5732 7.39137 2.74573 9.39708 2.10632 11.5142H4.66396C5.22815 11.5142 5.64189 12.0342 5.49144 12.5542C4.51351 16.0085 4.06217 19.7599 3.94933 23.6971C3.94933 24.1428 3.53559 24.5142 3.08424 24.5142H0.639434L0.564209 25.9628C0.639434 28.1914 1.42929 29.7142 3.2723 29.7142H9.02701C9.85448 29.7142 10.4939 29.0085 10.4187 28.1914C10.3811 27.7085 10.2682 27.2628 10.1178 27.1142C9.74164 26.7428 8.23714 25.9999 8.23714 25.9999L8.98939 17.4571L10.1178 17.0857C10.1178 17.0857 10.2682 15.9342 10.682 14.6714C11.0581 13.5571 11.8479 12.5914 13.1268 12.6285H18.6934L21.0254 14.4857H23.4702V0.742798H5.3786Z" fill="#8BD9F2"/>
<path d="M2.18146 11.5143H4.77671C5.3409 11.5143 5.75464 12.0343 5.60419 12.5543C4.62627 16.0086 4.17492 19.76 4.06208 23.6971C4.06208 24.1429 3.64834 24.5143 3.19699 24.5143H0.67696C0.488898 21.0971 1.24115 15.6743 2.18146 11.5143Z" fill="#FF7678"/>
<path d="M10.4561 16.7141H13.0889C13.0889 15.3769 13.0889 14.0027 13.8412 12.9998C11.8101 12.5912 10.6065 13.7055 10.4561 16.7141Z" fill="#FF7678"/>
<path d="M9.02665 30.0857H3.19672C2.06835 30.0857 0.187728 29.5286 0.0372779 25.9257C-0.263622 17.94 1.24088 10.5857 4.28748 5.27429C4.62599 4.71714 4.51316 4.01143 4.06181 3.56571C3.94897 3.45429 3.87375 3.30571 3.87375 3.15714V1.63429C3.87375 0.742857 4.62599 0 5.52869 0H27.8329C28.698 0 29.4502 0.705714 29.4502 1.59714V11.2171C29.4502 12.7029 28.9236 13.3343 27.5696 13.4086L25.8394 14.7829C25.7266 14.8571 25.6137 14.8943 25.5009 14.8943H20.9874C20.8746 14.8943 20.7241 14.8571 20.6489 14.7829L18.4674 13H13.0888C12.4494 13 11.6971 13.1857 11.2458 14.82C11.0953 15.3771 10.644 17.0486 10.644 17.0486C10.6064 17.2343 10.4559 17.3829 10.2679 17.42L9.478 17.68L8.80097 25.48C9.28994 25.74 10.155 26.2229 10.4935 26.52C10.7192 26.7429 10.8697 27.1886 10.9449 27.9314C11.0201 28.4514 10.832 29.0086 10.4559 29.4171C10.0798 29.8629 9.55322 30.0857 9.02665 30.0857ZM5.00212 2.93429C5.67914 3.75143 5.79198 4.90286 5.26541 5.83143C2.29402 10.9571 0.864751 18.0886 1.16565 25.8886C1.24088 27.9314 1.9179 28.9714 3.19672 28.9714H9.02665C9.25232 28.9714 9.478 28.86 9.62845 28.7114C9.7789 28.5257 9.85412 28.3029 9.81651 28.08C9.74128 27.56 9.66606 27.3371 9.66606 27.3C9.44038 27.1143 8.61291 26.6314 7.93589 26.2971C7.74783 26.1857 7.59738 25.9629 7.63499 25.74L8.38724 17.1971C8.42485 16.9743 8.5753 16.7886 8.76336 16.7143L9.59083 16.4543C9.74128 15.9343 10.0046 14.9314 10.1174 14.4857C10.6064 12.7029 11.6219 11.8114 13.0888 11.8486H18.6554C18.7683 11.8486 18.9187 11.8857 18.9939 11.96L21.1755 13.7057H25.2752L27.0054 12.3314C27.1182 12.2571 27.2311 12.22 27.3439 12.22C28.0961 12.22 28.2842 12.1829 28.2842 11.1429V1.59714C28.2842 1.33714 28.0585 1.11429 27.7953 1.11429H5.56631C5.26541 1.11429 5.03973 1.33714 5.03973 1.63429V2.93429H5.00212Z" fill="#1C2947"/>
<path d="M31.1431 8.91433H29.2624C28.9615 8.91433 28.6982 8.65433 28.6982 8.35719C28.6982 8.06005 28.9615 7.80005 29.2624 7.80005H31.1431C31.444 7.80005 31.7072 8.06005 31.7072 8.35719C31.7072 8.65433 31.4816 8.91433 31.1431 8.91433Z" fill="#1C2947"/>
<path d="M31.1431 3.3428H29.2624C28.9615 3.3428 28.6982 3.0828 28.6982 2.78566C28.6982 2.48852 28.9615 2.22852 29.2624 2.22852H31.1431C31.444 2.22852 31.7072 2.48852 31.7072 2.78566C31.7072 3.0828 31.4816 3.3428 31.1431 3.3428Z" fill="#1C2947"/>
<path d="M36.2206 9.65715H31.519C31.2181 9.65715 30.9548 9.39715 30.9548 9.1V2.04286C30.9548 1.74572 31.2181 1.48572 31.519 1.48572H36.2206C37.6875 1.48572 38.8534 2.67429 38.8534 4.08572V7.05715C38.8534 8.46858 37.6875 9.65715 36.2206 9.65715ZM32.0832 8.54286H36.2206C37.048 8.54286 37.7251 7.87429 37.7251 7.05715V4.08572C37.7251 3.26857 37.048 2.6 36.2206 2.6H32.0832V8.54286Z" fill="#1C2947"/>
<path d="M38.2894 8.54279C38.1014 8.54279 37.8757 8.43136 37.8005 8.24565C37.65 7.98565 37.7629 7.65136 38.0638 7.50279L39.6435 6.72279C39.8692 6.61136 39.982 6.3885 39.982 6.16565V5.0885C39.982 4.8285 39.8316 4.60565 39.6059 4.53136L38.4775 4.08565C38.1766 3.97422 38.0638 3.63993 38.1766 3.37993C38.2894 3.08279 38.628 2.97136 38.8912 3.08279L40.0196 3.5285C40.6966 3.7885 41.1104 4.41993 41.1104 5.12565V6.20279C41.1104 6.87136 40.7342 7.46565 40.1324 7.76279L38.5527 8.54279C38.4775 8.50565 38.4023 8.54279 38.2894 8.54279Z" fill="#1C2947"/>
<path d="M23.2444 12.6286C22.9435 12.6286 22.6802 12.3686 22.6802 12.0714V4.64284C22.6802 4.34569 22.9435 4.08569 23.2444 4.08569C23.5453 4.08569 23.8085 4.34569 23.8085 4.64284V12.0714C23.8085 12.3686 23.5829 12.6286 23.2444 12.6286Z" fill="#1C2947"/>
<path d="M23.2444 2.97146C22.9435 2.97146 22.6802 2.71146 22.6802 2.41432V0.928603C22.6802 0.63146 22.9435 0.37146 23.2444 0.37146C23.5453 0.37146 23.8085 0.63146 23.8085 0.928603V2.41432C23.8085 2.71146 23.5829 2.97146 23.2444 2.97146Z" fill="#1C2947"/>
<path d="M20.9876 8.17141H19.4831C19.1822 8.17141 18.9189 7.91141 18.9189 7.61427C18.9189 7.31713 19.1822 7.05713 19.4831 7.05713H20.9876C21.2885 7.05713 21.5518 7.31713 21.5518 7.61427C21.5518 7.91141 21.3261 8.17141 20.9876 8.17141Z" fill="#1C2947"/>
<path d="M20.9876 5.9429H19.4831C19.1822 5.9429 18.9189 5.6829 18.9189 5.38576C18.9189 5.08861 19.1822 4.82861 19.4831 4.82861H20.9876C21.2885 4.82861 21.5518 5.08861 21.5518 5.38576C21.5518 5.6829 21.3261 5.9429 20.9876 5.9429Z" fill="#1C2947"/>
<path d="M8.57547 8.91433H5.9426C5.6417 8.91433 5.37842 8.65433 5.37842 8.35719C5.37842 8.06005 5.6417 7.80005 5.9426 7.80005H8.57547C8.87637 7.80005 9.13966 8.06005 9.13966 8.35719C9.13966 8.65433 8.91399 8.91433 8.57547 8.91433Z" fill="#1C2947"/>
<path d="M8.57552 6.6857H7.07102C6.77012 6.6857 6.50684 6.4257 6.50684 6.12855C6.50684 5.83141 6.77012 5.57141 7.07102 5.57141H8.57552C8.87642 5.57141 9.13971 5.83141 9.13971 6.12855C9.13971 6.4257 8.91403 6.6857 8.57552 6.6857Z" fill="#1C2947"/>
<path d="M20.9876 10.4001H19.4831C19.1822 10.4001 18.9189 10.1401 18.9189 9.84291C18.9189 9.54577 19.1822 9.28577 19.4831 9.28577H20.9876C21.2885 9.28577 21.5518 9.54577 21.5518 9.84291C21.5518 10.1401 21.3261 10.4001 20.9876 10.4001Z" fill="#1C2947"/>
<path d="M24.3727 13H18.3547C18.0538 13 17.7905 12.74 17.7905 12.4429C17.7905 12.1457 18.0538 11.8857 18.3547 11.8857H24.3727C24.6736 11.8857 24.9369 12.1457 24.9369 12.4429C24.9369 12.74 24.7112 13 24.3727 13Z" fill="#1C2947"/>
<path d="M13.0889 17.457H10.456C10.1551 17.457 9.89185 17.197 9.89185 16.8999C9.89185 16.6027 10.1551 16.3427 10.456 16.3427H12.5247C12.5247 14.9684 12.6376 13.5941 13.3522 12.517C13.5403 12.257 13.8788 12.1827 14.142 12.3684C14.4053 12.5541 14.4806 12.8884 14.2925 13.1484C13.6531 14.1141 13.6531 15.4884 13.6531 16.937C13.6531 17.197 13.4274 17.457 13.0889 17.457Z" fill="#1C2947"/>
<path d="M45.4357 6.31424H40.5461C40.2452 6.31424 39.9819 6.05424 39.9819 5.75709C39.9819 5.45995 40.2452 5.19995 40.5461 5.19995H45.4357C45.7366 5.19995 45.9999 5.45995 45.9999 5.75709C45.9999 6.05424 45.7742 6.31424 45.4357 6.31424Z" fill="#1C2947"/>
<path d="M3.23448 25.2572H1.05296C0.752057 25.2572 0.48877 24.9972 0.48877 24.7001C0.48877 24.4029 0.752057 24.1429 1.05296 24.1429H3.19686C3.34731 24.1429 3.49776 23.9943 3.49776 23.8458C3.6106 19.4629 4.13718 15.6743 5.07749 12.2572C5.1151 12.1458 5.07749 12.0343 5.03987 11.9972C5.00226 11.9601 4.92704 11.8858 4.77659 11.8858H2.55745C2.25655 11.8858 1.99327 11.6258 1.99327 11.3286C1.99327 11.0315 2.25655 10.7715 2.55745 10.7715H4.77659C5.22794 10.7715 5.64167 10.9572 5.90496 11.3286C6.16825 11.6629 6.28108 12.1458 6.13063 12.5543C5.22794 15.8972 4.70136 19.5743 4.58852 23.8829C4.62614 24.6629 3.98673 25.2572 3.23448 25.2572Z" fill="#1C2947"/>
<path d="M7.82323 32.3143H4.06199C3.76109 32.3143 3.4978 32.0543 3.4978 31.7572V29.9C3.4978 29.6029 3.76109 29.3429 4.06199 29.3429C4.36289 29.3429 4.62618 29.6029 4.62618 29.9V31.2H7.25905V29.9C7.25905 29.6029 7.52233 29.3429 7.82323 29.3429C8.12413 29.3429 8.38742 29.6029 8.38742 29.9V31.7572C8.38742 32.0543 8.16174 32.3143 7.82323 32.3143Z" fill="#1C2947"/>
<path d="M18.731 38.9999C18.6182 38.9999 18.543 38.9627 18.4301 38.9256C17.1513 38.1456 15.3083 38.3313 13.39 38.5542C11.1709 38.8142 8.83894 39.0742 7.10877 37.7742C4.40068 35.7685 5.34099 32.1285 5.41621 31.9799C5.49144 31.6827 5.79234 31.497 6.09324 31.5713C6.39414 31.6456 6.5822 31.9427 6.50697 32.2399C6.50697 32.277 5.71711 35.3227 7.82341 36.8456C9.21507 37.8856 11.2085 37.6627 13.3148 37.4027C15.3459 37.1799 17.4522 36.9199 19.0695 37.9227C19.3328 38.0713 19.408 38.4427 19.2576 38.7027C19.1071 38.9256 18.9191 38.9999 18.731 38.9999Z" fill="#1C2947"/>
<path d="M19.4831 3.71426H5.19041C4.88951 3.71426 4.62622 3.45426 4.62622 3.15712C4.62622 2.85998 4.88951 2.59998 5.19041 2.59998H19.4831C19.784 2.59998 20.0473 2.85998 20.0473 3.15712C20.0473 3.45426 19.8216 3.71426 19.4831 3.71426Z" fill="#1C2947"/>
<path d="M35.2803 9.28566C34.9794 9.28566 34.7161 9.02566 34.7161 8.72852V4.27138C34.7161 3.97423 34.9794 3.71423 35.2803 3.71423C35.5811 3.71423 35.8444 3.97423 35.8444 4.27138V8.72852C35.8444 9.02566 35.6188 9.28566 35.2803 9.28566Z" fill="#1C2947"/>
</g>
<defs>
<clipPath id="clip0_145_151">
<rect width="46" height="39" fill="white"/>
</clipPath>
</defs>
</svg>
