<svg width="26" height="22" viewBox="0 0 26 22" fill="none" xmlns="http://www.w3.org/2000/svg">
<path d="M3.07275 0.448975V19.5306H23.1637V0.448975H3.07275ZM12.0546 17.7347H4.96366V2.24489H12.0546V17.7347ZM21.2728 17.7347H14.1818V2.24489H21.2728V17.7347Z" fill="#FF7678"/>
<path d="M23.2819 19.7551C23.0928 19.7551 22.9274 19.598 22.9274 19.4184V0.673469H3.30919V18.5204C3.30919 18.7 3.14373 18.8571 2.95464 18.8571C2.76555 18.8571 2.6001 18.7 2.6001 18.5204V0.336735C2.6001 0.157143 2.76555 0 2.95464 0H23.2819C23.471 0 23.6365 0.157143 23.6365 0.336735V19.4184C23.6365 19.598 23.471 19.7551 23.2819 19.7551Z" fill="#1C2947"/>
<path d="M21.3908 18.1837H14.0635C13.8744 18.1837 13.709 18.0265 13.709 17.8469V10.6632C13.709 10.4837 13.8744 10.3265 14.0635 10.3265C14.2526 10.3265 14.4181 10.4837 14.4181 10.6632V17.5102H21.0363V2.46937H14.4181V9.31631C14.4181 9.4959 14.2526 9.65304 14.0635 9.65304C13.8744 9.65304 13.709 9.4959 13.709 9.31631V2.13263C13.709 1.95304 13.8744 1.7959 14.0635 1.7959H21.3908C21.5799 1.7959 21.7453 1.95304 21.7453 2.13263V17.8469C21.7453 18.0265 21.5799 18.1837 21.3908 18.1837Z" fill="#1C2947"/>
<path d="M12.1728 18.1837H4.84551C4.65642 18.1837 4.49097 18.0265 4.49097 17.8469V2.13263C4.49097 1.95304 4.65642 1.7959 4.84551 1.7959H12.1728C12.3619 1.7959 12.5273 1.95304 12.5273 2.13263V17.8469C12.5273 18.0265 12.3619 18.1837 12.1728 18.1837ZM5.20006 17.5102H11.8182V2.46937H5.20006V17.5102Z" fill="#1C2947"/>
<path d="M15.0091 9.87757H13.3545C13.1655 9.87757 13 9.72043 13 9.54084C13 9.36124 13.1655 9.2041 13.3545 9.2041H15.0091C15.1982 9.2041 15.3636 9.36124 15.3636 9.54084C15.3636 9.72043 15.1982 9.87757 15.0091 9.87757Z" fill="#1C2947"/>
<path d="M25.6455 22H5.31818C5.12909 22 4.96364 21.8429 4.96364 21.6633C4.96364 21.4837 5.12909 21.3266 5.31818 21.3266H25.2909V19.9796H0.709091V21.3266H3.66364C3.85273 21.3266 4.01818 21.4837 4.01818 21.6633C4.01818 21.8429 3.85273 22 3.66364 22H0.354545C0.165455 22 0 21.8429 0 21.6633V19.6429C0 19.4633 0.165455 19.3062 0.354545 19.3062H25.6455C25.8345 19.3062 26 19.4633 26 19.6429V21.6633C26 21.8429 25.8345 22 25.6455 22Z" fill="#1C2947"/>
<path d="M6.73648 9.87773C6.64194 9.87773 6.54739 9.85528 6.47648 9.78793C6.33466 9.65324 6.33466 9.4512 6.47648 9.31651L9.54921 6.39814C9.69103 6.26345 9.90375 6.26345 10.0456 6.39814C10.1874 6.53283 10.1874 6.73487 10.0456 6.86957L6.97284 9.78793C6.92557 9.85528 6.83103 9.87773 6.73648 9.87773Z" fill="#8BD9F2"/>
<path d="M8.50919 10.8879C8.41464 10.8879 8.32009 10.8655 8.24919 10.7981C8.10737 10.6634 8.10737 10.4614 8.24919 10.3267L9.31282 9.31647C9.45464 9.18178 9.66737 9.18178 9.80918 9.31647C9.951 9.45117 9.951 9.65321 9.80918 9.7879L8.74555 10.7981C8.69828 10.8655 8.60373 10.8879 8.50919 10.8879Z" fill="#8BD9F2"/>
<path d="M16.4274 12.1225C16.3329 12.1225 16.2383 12.1 16.1674 12.0327C16.0256 11.898 16.0256 11.696 16.1674 11.5613L19.2401 8.64289C19.3819 8.5082 19.5947 8.5082 19.7365 8.64289C19.8783 8.77758 19.8783 8.97962 19.7365 9.11432L16.6638 12.0327C16.6165 12.1 16.5219 12.1225 16.4274 12.1225Z" fill="#8BD9F2"/>
<path d="M18.2001 13.1328C18.1056 13.1328 18.011 13.1103 17.9401 13.043C17.7983 12.9083 17.7983 12.7062 17.9401 12.5716L19.0037 11.5613C19.1456 11.4267 19.3583 11.4267 19.5001 11.5613C19.6419 11.696 19.6419 11.8981 19.5001 12.0328L18.4365 13.043C18.3892 13.1103 18.2946 13.1328 18.2001 13.1328Z" fill="#8BD9F2"/>
</svg>
