<svg width="21" height="21" viewBox="0 0 21 21" fill="none" xmlns="http://www.w3.org/2000/svg">
<path d="M6.125 7C6.125 4.58375 8.08375 2.625 10.5 2.625C12.9162 2.625 14.875 4.58375 14.875 7C14.875 9.41625 12.9162 11.375 10.5 11.375C8.08375 11.375 6.125 9.41625 6.125 7ZM10.5 9.625C11.9497 9.625 13.125 8.44975 13.125 7C13.125 5.55025 11.9497 4.375 10.5 4.375C9.05025 4.375 7.875 5.55025 7.875 7C7.875 8.44975 9.05025 9.625 10.5 9.625Z" fill="#286CF0"/>
<path d="M5.55025 14.3003C4.2375 15.613 3.5 17.3935 3.5 19.25H5.25C5.25 17.8576 5.80312 16.5223 6.78769 15.5377C7.77226 14.5531 9.10761 14 10.5 14C11.8924 14 13.2277 14.5531 14.2123 15.5377C15.1969 16.5223 15.75 17.8576 15.75 19.25H17.5C17.5 17.3935 16.7625 15.613 15.4497 14.3003C14.137 12.9875 12.3565 12.25 10.5 12.25C8.64348 12.25 6.86301 12.9875 5.55025 14.3003Z" fill="#286CF0"/>
</svg>
