<svg width="12" height="14" viewBox="0 0 12 14" fill="none" xmlns="http://www.w3.org/2000/svg">
<path d="M6.39767 12.8008L6.63276 13.2421H6.63276L6.39767 12.8008ZM5.60232 12.8008L5.36724 13.2421H5.36724L5.60232 12.8008ZM10.75 6.25C10.75 7.90262 9.93177 9.25946 8.92295 10.3053C7.91394 11.3514 6.75162 12.0458 6.16259 12.3596L6.63276 13.2421C7.26769 12.9039 8.53153 12.1516 9.64269 10.9996C10.7541 9.8474 11.75 8.25483 11.75 6.25H10.75ZM6 1.5C8.62335 1.5 10.75 3.62665 10.75 6.25H11.75C11.75 3.07436 9.17564 0.5 6 0.5V1.5ZM1.25 6.25C1.25 3.62665 3.37665 1.5 6 1.5V0.5C2.82436 0.5 0.25 3.07436 0.25 6.25H1.25ZM5.83741 12.3596C5.24838 12.0458 4.08606 11.3514 3.07705 10.3053C2.06823 9.25946 1.25 7.90262 1.25 6.25H0.25C0.25 8.25483 1.24595 9.84739 2.35731 10.9996C3.46847 12.1516 4.73231 12.9039 5.36724 13.2421L5.83741 12.3596ZM6.16259 12.3596C6.05813 12.4152 5.94187 12.4152 5.83741 12.3596L5.36724 13.2421C5.76559 13.4543 6.2344 13.4543 6.63276 13.2421L6.16259 12.3596ZM7.75 6.25C7.75 7.2165 6.9665 8 6 8V9C7.51878 9 8.75 7.76878 8.75 6.25H7.75ZM6 4.5C6.9665 4.5 7.75 5.2835 7.75 6.25H8.75C8.75 4.73122 7.51878 3.5 6 3.5V4.5ZM4.25 6.25C4.25 5.2835 5.0335 4.5 6 4.5V3.5C4.48122 3.5 3.25 4.73122 3.25 6.25H4.25ZM6 8C5.0335 8 4.25 7.2165 4.25 6.25H3.25C3.25 7.76878 4.48122 9 6 9V8Z" fill="#286CF0"/>
</svg>
