<svg width="148" height="44" viewBox="0 0 148 44" fill="none" xmlns="http://www.w3.org/2000/svg">
<path fill-rule="evenodd" clip-rule="evenodd" d="M23.5137 4.77266C24.6773 4.76576 28.1353 4.45712 29.6 9.35609C30.5867 12.6561 32.1584 18.0616 34.3151 25.5727H35.1935C37.5064 17.654 39.0952 12.2485 39.96 9.35609C41.44 4.40609 45.14 4.77275 46.62 4.77275L58.0386 4.77277V39.9727H46.4005V19.2288H45.62L39.1324 39.9727H30.3762L23.8885 19.2134H23.1081V39.9727H11.47V4.77277L23.5137 4.77266ZM74.7506 4.77277V25.5321H75.6791L83.5707 8.46185C85.1026 5.06482 88.3676 4.77277 88.3676 4.77277H99.6298V39.9728H87.7486V19.2134H86.8202L79.0833 36.2837C77.5514 39.6653 74.1317 39.9728 74.1317 39.9728H62.8695V4.77277H74.7506ZM140.696 21.5C139.039 26.1541 133.835 29.4872 128.072 29.4872H115.613V39.9728H104.314V21.5H140.696Z" fill="white"/>
<path fill-rule="evenodd" clip-rule="evenodd" d="M128.617 4.77281H103.722C104.314 12.6095 111.124 19.3183 118.174 19.3183H141.481C142.826 12.805 138.196 4.77281 128.617 4.77281Z" fill="white"/>
</svg>
