<svg width="56" height="48" viewBox="0 0 56 48" fill="none" xmlns="http://www.w3.org/2000/svg">
<path d="M6.61823 0.979248V42.6119H49.891V0.979248H6.61823ZM25.9637 38.6935H10.691V4.89762H25.9637V38.6935ZM45.8182 38.6935H30.5455V4.89762H45.8182V38.6935Z" fill="#FF7678"/>
<path d="M50.1454 43.102C49.7382 43.102 49.3818 42.7592 49.3818 42.3673V1.46939H7.12725V40.4082C7.12725 40.8 6.77088 41.1429 6.36361 41.1429C5.95634 41.1429 5.59998 40.8 5.59998 40.4082V0.734694C5.59998 0.342857 5.95634 0 6.36361 0H50.1454C50.5527 0 50.9091 0.342857 50.9091 0.734694V42.3673C50.9091 42.7592 50.5527 43.102 50.1454 43.102Z" fill="#1C2947"/>
<path d="M46.0727 39.6734H30.2909C29.8836 39.6734 29.5273 39.3306 29.5273 38.9387V23.2653C29.5273 22.8734 29.8836 22.5306 30.2909 22.5306C30.6982 22.5306 31.0546 22.8734 31.0546 23.2653V38.2041H45.3091V5.38772H31.0546V20.3265C31.0546 20.7183 30.6982 21.0612 30.2909 21.0612C29.8836 21.0612 29.5273 20.7183 29.5273 20.3265V4.65303C29.5273 4.26119 29.8836 3.91833 30.2909 3.91833H46.0727C46.48 3.91833 46.8364 4.26119 46.8364 4.65303V38.9387C46.8364 39.3306 46.48 39.6734 46.0727 39.6734Z" fill="#1C2947"/>
<path d="M26.2182 39.6734H10.4364C10.0291 39.6734 9.67273 39.3306 9.67273 38.9387V4.65303C9.67273 4.26119 10.0291 3.91833 10.4364 3.91833H26.2182C26.6255 3.91833 26.9818 4.26119 26.9818 4.65303V38.9387C26.9818 39.3306 26.6255 39.6734 26.2182 39.6734ZM11.2 38.2041H25.4545V5.38772H11.2V38.2041Z" fill="#1C2947"/>
<path d="M32.3273 21.5511H28.7636C28.3564 21.5511 28 21.2082 28 20.8164C28 20.4245 28.3564 20.0817 28.7636 20.0817H32.3273C32.7345 20.0817 33.0909 20.4245 33.0909 20.8164C33.0909 21.2082 32.7345 21.5511 32.3273 21.5511Z" fill="#1C2947"/>
<path d="M55.2364 48H11.4545C11.0473 48 10.6909 47.6571 10.6909 47.2653C10.6909 46.8735 11.0473 46.5306 11.4545 46.5306H54.4727V43.5918H1.52727V46.5306H7.89091C8.29818 46.5306 8.65454 46.8735 8.65454 47.2653C8.65454 47.6571 8.29818 48 7.89091 48H0.763636C0.356364 48 0 47.6571 0 47.2653V42.8571C0 42.4653 0.356364 42.1224 0.763636 42.1224H55.2364C55.6436 42.1224 56 42.4653 56 42.8571V47.2653C56 47.6571 55.6436 48 55.2364 48Z" fill="#1C2947"/>
<path d="M14.5092 21.5511C14.3055 21.5511 14.1019 21.5022 13.9492 21.3552C13.6437 21.0613 13.6437 20.6205 13.9492 20.3266L20.5674 13.9593C20.8728 13.6654 21.331 13.6654 21.6365 13.9593C21.9419 14.2532 21.9419 14.694 21.6365 14.9879L15.0183 21.3552C14.9165 21.5022 14.7128 21.5511 14.5092 21.5511Z" fill="#8BD9F2"/>
<path d="M18.3273 23.7552C18.1237 23.7552 17.9201 23.7062 17.7673 23.5593C17.4619 23.2654 17.4619 22.8246 17.7673 22.5307L20.0582 20.3266C20.3637 20.0327 20.8219 20.0327 21.1273 20.3266C21.4328 20.6205 21.4328 21.0613 21.1273 21.3552L18.8364 23.5593C18.7346 23.7062 18.531 23.7552 18.3273 23.7552Z" fill="#8BD9F2"/>
<path d="M35.3819 26.4492C35.1782 26.4492 34.9746 26.4002 34.8219 26.2533C34.5164 25.9594 34.5164 25.5186 34.8219 25.2247L41.4401 18.8574C41.7455 18.5635 42.2037 18.5635 42.5092 18.8574C42.8146 19.1512 42.8146 19.5921 42.5092 19.8859L35.891 26.2533C35.7891 26.4002 35.5855 26.4492 35.3819 26.4492Z" fill="#8BD9F2"/>
<path d="M39.2001 28.6535C38.9965 28.6535 38.7928 28.6045 38.6401 28.4576C38.3346 28.1637 38.3346 27.7229 38.6401 27.429L40.931 25.2249C41.2365 24.931 41.6946 24.931 42.0001 25.2249C42.3056 25.5188 42.3056 25.9596 42.0001 26.2535L39.7092 28.4576C39.6074 28.6045 39.4037 28.6535 39.2001 28.6535Z" fill="#8BD9F2"/>
</svg>
