<svg width="90" height="90" viewBox="0 0 90 90" fill="none" xmlns="http://www.w3.org/2000/svg">
<path d="M46.0092 47.4475C47.6744 47.4474 49.3403 46.8143 50.6081 45.5482C51.8368 44.3213 52.5135 42.6899 52.5135 40.9542C52.5135 39.2188 51.8368 37.5873 50.6081 36.3601C48.0722 33.8279 43.9461 33.8279 41.4103 36.3601C40.1816 37.5873 39.5049 39.2188 39.5049 40.9542C39.5049 42.6897 40.1816 44.3212 41.4103 45.5482C42.6784 46.8145 44.3434 47.4475 46.0092 47.4475ZM42.5489 37.5002C43.5028 36.5476 44.7559 36.0713 46.0092 36.0713C47.2623 36.0713 48.5153 36.5476 49.4694 37.5002C50.3934 38.423 50.9022 39.6496 50.9022 40.9542C50.9022 42.2588 50.3934 43.4853 49.4694 44.4081C47.5615 46.3133 44.4569 46.3133 42.5489 44.4081C41.6248 43.4855 41.116 42.2588 41.116 40.9542C41.116 39.6496 41.6248 38.423 42.5489 37.5002Z" fill="#00C7FF"/>
<path d="M51.9991 33.291C52.205 33.291 52.4111 33.2125 52.5684 33.0555L56.6433 28.9872C57.3805 28.2513 56.242 27.111 55.5048 27.8469L51.4299 31.9152C50.951 32.3933 51.3223 33.291 51.9991 33.291Z" fill="#00C7FF"/>
<path d="M54.09 35.712C54.4697 36.027 54.8496 36.0273 55.2294 35.7129L59.3044 31.6447C60.0416 30.9087 58.9031 29.7685 58.1659 30.5044L54.0909 34.5728C53.776 34.887 53.7756 35.3972 54.09 35.712Z" fill="#00C7FF"/>
<path d="M71.1768 59.5982L68.4996 59.5975L68.4835 51.5284C68.4824 51.0842 68.1223 50.7245 67.6779 50.7245L54.0134 50.7209L71.7637 32.9966C72.0788 32.6165 72.0788 32.2365 71.7637 31.8564L55.1192 15.2356C54.8048 14.9215 54.2951 14.9215 53.9805 15.2356L47.3697 21.8373C46.6327 22.5735 47.7714 23.7135 48.5084 22.9775L54.55 16.9442L70.0541 32.4264L51.7424 50.7115H49.7615L65.534 34.974C65.8494 34.5939 65.8493 34.2137 65.5342 33.8335C65.1576 33.4576 64.9503 32.9578 64.9503 32.4263C64.9505 31.8949 65.1578 31.3953 65.5342 31.0194C65.8493 30.6393 65.8493 30.2593 65.5342 29.8792L57.0992 21.4563C56.7848 21.1422 56.2751 21.1422 55.9605 21.4563C55.1828 22.2328 53.9173 22.233 53.1396 21.4563C52.825 21.1421 52.3153 21.1422 52.0009 21.4563L26.4846 46.9347C26.1694 47.3147 26.1694 47.6948 26.4846 48.0748C26.861 48.4508 27.0683 48.9504 27.0683 49.4819C27.0683 49.9343 26.9169 50.363 26.6399 50.7126L23.1961 50.7115L21.9646 49.4819L45.4827 25.9983C46.2199 25.2621 45.0814 24.1223 44.344 24.8581L20.2551 48.9117C19.9399 49.2918 19.9399 49.672 20.2551 50.0521L20.9164 50.7122L17.8059 50.7115C17.3983 50.7115 16.9992 51.1209 17 51.5187L17.0176 60.3092C17.0186 60.7534 17.3788 61.1131 17.8231 61.1133L20.5003 61.114L20.5166 69.1829C20.5175 69.6271 20.8777 69.987 21.322 69.987L48.385 70C49.3886 70 49.483 68.3836 48.3852 68.3834L37.4488 68.3803V61.2007L55.0499 61.2053V68.3843L53.2314 68.3839C52.1703 68.3839 52.1699 70 53.2311 70H71.1941C71.6016 70 72.0007 69.5904 72 69.1928L71.9824 60.4023C71.9815 59.9581 71.6212 59.5984 71.1768 59.5982ZM33.95 52.327L50.0521 52.3312L51.5512 52.3316V59.5108L33.95 59.506V52.327ZM66.8883 59.5148L53.1625 59.5111V58.1017H66.8854L66.8883 59.5148ZM66.8766 53.7363H61.9484C60.9067 53.7363 60.9067 55.3476 61.9484 55.3476H66.8799L66.8821 56.4902H53.1625V55.3476H58.4291C59.4708 55.3476 59.4708 53.7363 58.4291 53.7363H53.1625V52.3322L66.8738 52.3357L66.8766 53.7363ZM28.1303 47.5686L52.6341 23.101C53.8011 23.8321 55.2991 23.8321 56.4658 23.101L63.8884 30.5131C63.5306 31.081 63.3391 31.739 63.3391 32.4264C63.3391 33.1138 63.5306 33.7719 63.8884 34.3398L47.4803 50.7115H40.2078L40.758 50.1632C41.4959 49.428 40.3587 48.2864 39.6208 49.0217L37.9249 50.7115H34.8866L38.0978 47.5056C38.8352 46.7697 37.6967 45.6293 36.9595 46.3652L32.8845 50.4336C32.8019 50.5161 32.7414 50.6121 32.7021 50.7146L28.464 50.7133C28.6054 50.3239 28.6795 49.9087 28.6795 49.4821C28.6797 48.7946 28.4881 48.1364 28.1303 47.5686ZM18.6245 58.1015H29.64C30.6817 58.1015 30.6817 56.4902 29.64 56.4902H18.6213L18.619 55.3476H21.0329C22.0746 55.3476 22.0746 53.7363 21.0329 53.7363H18.6157L18.6128 52.323L32.3385 52.3267V53.7363H24.4747C23.4331 53.7363 23.4331 55.3476 24.4747 55.3476H32.3387V59.5058L18.6273 59.5021L18.6245 58.1015ZM22.1263 68.3759L22.1235 66.9752H27.0517C28.0934 66.9752 28.0934 65.3639 27.0517 65.3639H22.1202L22.1179 64.2212H35.8375V65.3639H30.5709C29.5293 65.3639 29.5293 66.9752 30.5709 66.9752H35.8375V68.3797L22.1263 68.3759ZM35.8375 62.61H22.1147L22.1118 61.1967L35.8375 61.2004V62.61ZM56.6614 68.3848V66.9752H64.5253C65.5668 66.9752 65.5668 65.3639 64.5253 65.3639H56.6614V61.2059L70.3727 61.2094L70.3755 62.61H59.3599C58.3184 62.61 58.3184 64.2213 59.3599 64.2213H70.3786L70.381 65.3639H67.9669C66.9253 65.3639 66.9253 66.9752 67.9669 66.9752H70.3841L70.387 68.3885L56.6614 68.3848Z" fill="#00C7FF"/>
<path d="M45 89C69.3005 89 89 69.3005 89 45C89 20.6995 69.3005 1 45 1C20.6995 1 1 20.6995 1 45C1 69.3005 20.6995 89 45 89Z" stroke="#33C5F3" stroke-width="2"/>
</svg>
