<svg width="90" height="90" viewBox="0 0 90 90" fill="none" xmlns="http://www.w3.org/2000/svg">
<path d="M71.2484 35.7729H65.346L62.3624 24.0719C61.9876 22.6016 60.4862 21.7109 59.0164 22.0856L52.2138 23.8202C51.755 23.9371 51.4778 24.404 51.5948 24.8628C51.7118 25.3216 52.1786 25.5985 52.6374 25.4818L59.44 23.7471C59.9944 23.6062 60.5596 23.9417 60.701 24.4956L61.0314 25.7918L16.0777 37.2547L15.7472 35.9585C15.6788 35.6903 15.719 35.4111 15.8603 35.1731C16.0018 34.9349 16.2275 34.7661 16.4958 34.6977L47.4168 26.8129C47.8756 26.696 48.1528 26.2291 48.0358 25.7703C47.9188 25.3115 47.4522 25.0346 46.9932 25.1513L16.0721 33.036C14.6018 33.4109 13.7108 34.9119 14.0856 36.3821L20.4264 61.2483C20.7434 62.4913 21.8652 63.3203 23.093 63.3203C23.3173 63.3203 23.5454 63.2925 23.7725 63.2347L24.1784 63.1311V64.1861C24.1784 65.7033 25.4127 66.9377 26.93 66.9377H71.2484C72.7658 66.9377 74 65.7033 74 64.1861V38.5243C74 37.0071 72.7658 35.7729 71.2484 35.7729ZM24.1785 61.3617L23.349 61.5731C22.795 61.7145 22.2293 61.3785 22.088 60.8247L18.2068 45.6039L24.1785 44.0811V61.3617ZM24.1785 38.5243V42.3117L17.7831 43.9425L16.5015 38.9161L24.7851 36.8037C24.4061 37.2755 24.1785 37.8737 24.1785 38.5243ZM63.5766 35.7727H56.7614L63.1604 34.141L63.5766 35.7727ZM61.4552 27.4531L62.7368 32.4795L49.822 35.7729H28.8284L61.4552 27.4531ZM71.2484 65.2231H26.9301C26.3583 65.2231 25.8931 64.7579 25.8931 64.1861V62.0279V38.5243C25.8931 37.9527 26.3582 37.4875 26.9301 37.4875H71.2484C71.8202 37.4875 72.2854 37.9527 72.2854 38.5243V64.1861C72.2854 64.7579 71.8202 65.2231 71.2484 65.2231Z" fill="#00C7FF"/>
<path d="M48.1414 56.8784H29.4609C28.9874 56.8784 28.6035 57.2622 28.6035 57.7358C28.6035 58.2094 28.9874 58.5932 29.4609 58.5932H48.1414C48.615 58.5932 48.9988 58.2094 48.9988 57.7358C48.9988 57.2624 48.615 56.8784 48.1414 56.8784Z" fill="#00C7FF"/>
<path d="M62.4284 41.8027C61.197 41.8027 60.0576 42.2001 59.1286 42.8719C58.1716 42.1785 57.0236 41.8027 55.8254 41.8027C52.7132 41.8027 50.1812 44.3345 50.1812 47.4469C50.1814 50.5589 52.7134 53.0909 55.8256 53.0909C57.0236 53.0909 58.1716 52.7151 59.1286 52.0217C60.0576 52.6935 61.1972 53.0909 62.4284 53.0909C65.5406 53.0909 68.0726 50.5589 68.0726 47.4469C68.0726 44.3345 65.5406 41.8027 62.4284 41.8027ZM56.7912 47.7143C56.7922 47.7365 56.7938 47.7583 56.795 47.7803C56.7992 47.8521 56.8046 47.9239 56.8114 47.9951C56.813 48.0119 56.8146 48.0285 56.8164 48.0451C56.9208 49.0477 57.2866 49.9895 57.8832 50.7941C57.2692 51.1731 56.5608 51.3761 55.8256 51.3761C53.6588 51.3761 51.896 49.6135 51.896 47.4467C51.8962 45.2801 53.6588 43.5173 55.8256 43.5173C56.5608 43.5173 57.2692 43.7205 57.8832 44.0993C57.2868 44.9039 56.9208 45.8457 56.8164 46.8483C56.8146 46.8651 56.813 46.8815 56.8114 46.8981C56.8046 46.9695 56.7992 47.0411 56.795 47.1129C56.7938 47.1351 56.7922 47.1569 56.7912 47.1789C56.787 47.2677 56.7844 47.3569 56.7844 47.4467C56.7844 47.5363 56.787 47.6255 56.7912 47.7143ZM62.4286 51.3763C61.3558 51.3763 60.3824 50.9437 59.6726 50.2443C59.658 50.2299 59.6436 50.2153 59.6292 50.2007C59.5966 50.1675 59.564 50.1339 59.5326 50.0993C59.5238 50.0899 59.5152 50.0803 59.5066 50.0707C59.4696 50.0295 59.433 49.9877 59.3978 49.9449C59.3976 49.9447 59.3974 49.9445 59.3972 49.9443C58.8364 49.2647 58.4992 48.3943 58.4992 47.4467C58.499 46.4991 58.8364 45.6285 59.3972 44.9491C59.3974 44.9489 59.3976 44.9487 59.3976 44.9485C59.433 44.9057 59.4698 44.8639 59.5068 44.8225C59.5154 44.8131 59.5238 44.8035 59.5326 44.7941C59.5642 44.7597 59.5966 44.7259 59.6294 44.6925C59.6438 44.6781 59.658 44.6637 59.6726 44.6493C60.3824 43.9499 61.3558 43.5173 62.4286 43.5173C64.5954 43.5173 66.358 45.2801 66.358 47.4469C66.358 49.6135 64.5954 51.3763 62.4286 51.3763Z" fill="#00C7FF"/>
<path d="M35.5707 42.3604H31.8107C30.0425 42.3604 28.604 43.7988 28.604 45.567V49.3272C28.6039 51.0954 30.0425 52.5337 31.8107 52.5337H35.5707C37.3389 52.5337 38.7775 51.0954 38.7775 49.3272V45.567C38.7775 43.799 37.3391 42.3604 35.5707 42.3604ZM37.0627 47.9076H35.2337C34.7603 47.9076 34.3763 48.2913 34.3763 48.7649C34.3763 49.2385 34.7601 49.6223 35.2337 49.6223H37.0331C36.8957 50.3041 36.2923 50.8194 35.5707 50.8194H31.8106C31.0888 50.8194 30.4854 50.3041 30.3481 49.6223H32.1475C32.6209 49.6223 33.0049 49.2385 33.0049 48.7649C33.0049 48.2913 32.6211 47.9076 32.1475 47.9076H30.3186V47.1646H32.1475C32.6209 47.1646 33.0049 46.781 33.0049 46.3074C33.0049 45.834 32.6211 45.45 32.1475 45.45H30.3244C30.3844 44.682 31.0273 44.075 31.8106 44.075H35.5707C36.3539 44.075 36.9967 44.682 37.0569 45.45H35.2337C34.7603 45.45 34.3763 45.8338 34.3763 46.3074C34.3763 46.7808 34.7601 47.1646 35.2337 47.1646H37.0627V47.9076Z" fill="#00C7FF"/>
<path d="M68.2718 60.6509H38.4204C37.9468 60.6509 37.563 61.0347 37.563 61.5083C37.563 61.9817 37.9468 62.3655 38.4204 62.3655H68.2718C68.7452 62.3655 69.1292 61.9817 69.1292 61.5083C69.1292 61.0347 68.7454 60.6509 68.2718 60.6509Z" fill="#00C7FF"/>
<path d="M32.955 60.6509H29.4613C28.9879 60.6509 28.604 61.0347 28.604 61.5083C28.604 61.9817 28.9878 62.3655 29.4613 62.3655H32.955C33.4285 62.3655 33.8124 61.9817 33.8124 61.5083C33.8124 61.0347 33.4285 60.6509 32.955 60.6509Z" fill="#00C7FF"/>
<path d="M45 89C69.3005 89 89 69.3005 89 45C89 20.6995 69.3005 1 45 1C20.6995 1 1 20.6995 1 45C1 69.3005 20.6995 89 45 89Z" stroke="#33C5F3" stroke-width="2"/>
</svg>
