<svg width="90" height="90" viewBox="0 0 90 90" fill="none" xmlns="http://www.w3.org/2000/svg">
<g clip-path="url(#clip0_204_1821)">
<path d="M66.6254 51.3616H60.5488V53.3871H66.6254V51.3616Z" fill="#33C5F3"/>
<path d="M58.5234 51.3616H52.4468V53.3871H58.5234V51.3616Z" fill="#33C5F3"/>
<path d="M50.4213 51.3616H44.3447V53.3871H50.4213V51.3616Z" fill="#33C5F3"/>
<path d="M44 89C68.3005 89 88 69.3005 88 45C88 20.6995 68.3005 1 44 1C19.6995 1 0 20.6995 0 45C0 69.3005 19.6995 89 44 89Z" stroke="#33C5F3" stroke-width="2"/>
<path d="M75.7399 31.9196L55.7004 11.877C55.1313 11.3025 54.3559 10.9797 53.5472 10.9807H53.5381C52.7347 10.9811 51.9653 11.304 51.4022 11.877L30.1443 33.1319H19.0383C17.3603 33.1319 16 34.4922 16 36.1702V64.5276C16 66.2056 17.3603 67.5659 19.0383 67.5659H34.0434L37.0655 70.591C37.6345 71.1655 38.4099 71.4883 39.2186 71.4873H39.2267C40.0304 71.4871 40.8003 71.1641 41.3637 70.591L44.3918 67.5659H67.651C69.329 67.5659 70.6893 66.2056 70.6893 64.5276V41.2685L75.7349 36.2229C76.3108 35.6591 76.6359 34.8877 76.6373 34.0819C76.6403 33.2699 76.317 32.4908 75.7399 31.9196ZM62.8566 21.9003L51.625 33.1319H43.0246L58.5564 17.6001L62.8566 21.9003ZM52.8363 13.305C53.2215 12.9104 53.8537 12.9028 54.2484 13.2882C54.2541 13.2937 54.2598 13.2993 54.2653 13.305L57.1243 16.1681L40.1595 33.1319H33.0084L52.8363 13.305ZM39.9296 69.163C39.7444 69.3565 39.4884 69.4661 39.2207 69.4669C38.9492 69.4662 38.6895 69.3569 38.4996 69.163L36.9085 67.5659H41.5277L39.9296 69.163ZM68.6638 64.5276C68.6638 65.0869 68.2103 65.5404 67.651 65.5404H19.0383C18.479 65.5404 18.0255 65.0869 18.0255 64.5276V50.3489H68.6638V64.5276ZM68.6638 48.3234H18.0255V42.2468H68.6638V48.3234ZM68.6638 40.2213H18.0255V36.1702C18.0255 35.6109 18.479 35.1574 19.0383 35.1574H67.651C68.2103 35.1574 68.6638 35.6109 68.6638 36.1702V40.2213ZM74.3079 34.7857L70.6893 38.4044V36.1702C70.6893 34.4922 69.329 33.1319 67.651 33.1319H54.4851L64.2846 23.3324L74.3038 33.3517C74.4984 33.5423 74.6079 33.8034 74.6077 34.0758C74.6074 34.3432 74.4993 34.5991 74.3079 34.7857Z" fill="#33C5F3"/>
<path d="M26.7137 63.542C26.8616 63.4142 27.0001 63.2757 27.128 63.1278C28.4672 64.6877 30.7683 64.9841 32.4591 63.8145C33.5504 63.0515 34.2054 61.8079 34.2173 60.4764C34.2173 58.2391 32.4036 56.4253 30.1662 56.4253C29.9652 56.4226 29.7644 56.4395 29.5667 56.476L29.5404 56.4831C29.5302 56.4831 29.5201 56.4831 29.511 56.4831C28.5832 56.6373 27.7394 57.1134 27.128 57.828C25.6645 56.1357 23.1061 55.9502 21.4139 57.4138C19.7216 58.8772 19.5361 61.4356 20.9997 63.1278C22.4632 64.8201 25.0214 65.0056 26.7137 63.542ZM29.91 58.4721C29.9945 58.4561 30.0803 58.449 30.1662 58.4509C31.285 58.4509 32.1918 59.3577 32.1918 60.4764C32.1908 60.9049 32.0511 61.3217 31.7938 61.6644C31.7573 61.714 31.7289 61.7657 31.6874 61.8173C31.6803 61.8254 31.6702 61.8305 31.6621 61.8386C31.2795 62.261 30.7362 62.5021 30.1662 62.5019C29.0478 62.4828 28.1564 61.5607 28.1755 60.4422C28.1925 59.4491 28.927 58.6147 29.91 58.4721ZM24.0897 58.4509C25.2084 58.4509 26.1152 59.3577 26.1152 60.4764C26.1152 61.5951 25.2084 62.5019 24.0897 62.5019C22.9709 62.5019 22.0641 61.5951 22.0641 60.4764C22.0641 59.3577 22.9709 58.4509 24.0897 58.4509Z" fill="#33C5F3"/>
</g>
<defs>
<clipPath id="clip0_204_1821">
<rect width="90" height="90" fill="white"/>
</clipPath>
</defs>
</svg>
