<svg width="90" height="90" viewBox="0 0 90 90" fill="none" xmlns="http://www.w3.org/2000/svg">
<path d="M45 89C69.3005 89 89 69.3005 89 45C89 20.6995 69.3005 1 45 1C20.6995 1 1 20.6995 1 45C1 69.3005 20.6995 89 45 89Z" stroke="#33C5F3" stroke-width="2"/>
<path d="M70.5105 42.7139C69.9619 35.0694 65.8786 28.1185 59.4685 23.9173C58.124 17.5552 52.51 13.0021 46.0073 13C39.5046 12.9979 33.8877 17.5472 32.5389 23.9085C26.193 28.0685 22.1234 34.9256 21.5117 42.4888H19.4571C17.8282 42.4888 16.5078 43.8092 16.5078 45.438V62.1504C16.5078 63.7792 17.8282 65.0997 19.4571 65.0997H32.6982C40.0691 69.8758 49.435 70.3329 57.2359 66.297C61.4405 67.7665 66.0967 67.1048 69.7254 64.522C73.3541 61.9393 75.5042 57.7566 75.4928 53.3027C75.4817 49.2095 73.6571 45.3317 70.5105 42.7139ZM46.0003 14.9624C52.5156 14.9624 57.7973 20.2441 57.7973 26.7594C57.7973 33.2747 52.5156 38.5564 46.0003 38.5564C39.485 38.5564 34.2033 33.2747 34.2033 26.7594C34.2103 20.2471 39.4879 14.9695 46.0003 14.9624ZM18.474 45.438C18.474 44.8951 18.9141 44.4549 19.4571 44.4549H39.1187C39.6617 44.4549 40.1018 44.8951 40.1018 45.438V48.3873H18.474V45.438ZM18.474 50.3534H24.3725V55.2688H18.474V50.3534ZM26.3386 50.3534H32.2371V55.2688H26.3386V50.3534ZM40.1018 50.3534V55.2688H34.2033V50.3534H40.1018ZM32.2371 57.235V63.1335H26.3386V57.235H32.2371ZM34.2033 57.235H40.1018V62.1504C40.1018 62.6934 39.6617 63.1335 39.1187 63.1335H34.2033V57.235ZM18.474 62.1504V57.235H24.3725V63.1335H19.4571C18.9141 63.1335 18.474 62.6934 18.474 62.1504ZM36.8085 65.0997H39.1187C40.7475 65.0997 42.068 63.7792 42.068 62.1504V45.438C42.068 43.8092 40.7475 42.4888 39.1187 42.4888H23.4818C24.038 36.1736 27.2186 30.3817 32.2489 26.5235C32.2489 26.6031 32.2371 26.6798 32.2371 26.7594C32.2371 34.3606 38.3991 40.5226 46.0003 40.5226C53.6015 40.5226 59.7634 34.3606 59.7634 26.7594C59.7634 26.6828 59.7536 26.608 59.7516 26.5314C64.4401 30.1259 67.536 35.4123 68.3772 41.2599C62.9825 38.2677 56.255 39.2364 51.9236 43.6291C47.5923 48.0219 46.7183 54.7623 49.7861 60.1144C50.9845 62.2024 52.7061 63.9422 54.7812 65.1626C54.8058 65.1803 54.8215 65.2068 54.848 65.2225C54.8588 65.2284 54.8706 65.2304 54.8815 65.2353C49.1038 67.7224 42.5481 67.6732 36.8085 65.0997ZM68.4539 62.9831L67.9879 62.176C67.7146 61.7098 67.1163 61.5516 66.6483 61.8218C66.1803 62.092 66.0181 62.6893 66.2852 63.1591L66.7492 63.9632C65.4799 64.565 64.1126 64.9329 62.7127 65.0495V64.1166C62.7127 63.5736 62.2726 63.1335 61.7296 63.1335C61.1867 63.1335 60.7465 63.5736 60.7465 64.1166V65.0495C59.347 64.9345 57.9796 64.5682 56.71 63.9681L57.174 63.164C57.3524 62.8596 57.3541 62.483 57.1784 62.1771C57.0027 61.8712 56.6765 61.6829 56.3238 61.6837C55.971 61.6845 55.6457 61.8742 55.4713 62.1809L55.0053 62.988C53.8532 62.1849 52.8523 61.184 52.0492 60.0319L52.8563 59.5659C53.163 59.3915 53.3527 59.0662 53.3535 58.7134C53.3543 58.3607 53.166 58.0345 52.8601 57.8588C52.5542 57.6831 52.1776 57.6848 51.8732 57.8632L51.0691 58.3272C50.4669 57.0563 50.0989 55.6873 49.9828 54.2857H50.9157C51.4586 54.2857 51.8988 53.8456 51.8988 53.3027C51.8988 52.7597 51.4586 52.3196 50.9157 52.3196H49.9828C50.0979 50.9201 50.4642 49.5527 51.0641 48.283L51.8683 48.7471C52.3381 49.0142 52.9354 48.852 53.2056 48.384C53.4758 47.916 53.3176 47.3177 52.8514 47.0444L52.0443 46.5784C52.8474 45.4262 53.8482 44.4254 55.0004 43.6222L55.4664 44.4294C55.6408 44.736 55.9661 44.9258 56.3188 44.9265C56.6716 44.9273 56.9978 44.739 57.1735 44.4331C57.3492 44.1272 57.3475 43.7506 57.1691 43.4463L56.7051 42.6421C57.9759 42.0398 59.345 41.6718 60.7465 41.5558V42.4888C60.7465 43.0317 61.1867 43.4718 61.7296 43.4718C62.2726 43.4718 62.7127 43.0317 62.7127 42.4888V41.5558C64.1126 41.6724 65.4799 42.0404 66.7492 42.6421L66.2852 43.4463C66.1068 43.7506 66.1051 44.1272 66.2808 44.4331C66.4565 44.739 66.7827 44.9273 67.1355 44.9265C67.4882 44.9258 67.8136 44.736 67.9879 44.4294L68.4539 43.6222C69.6061 44.4254 70.6069 45.4262 71.41 46.5784L70.6029 47.0444C70.2962 47.2187 70.1065 47.544 70.1057 47.8968C70.105 48.2496 70.2933 48.5757 70.5992 48.7514C70.9051 48.9271 71.2817 48.9255 71.586 48.7471L72.3902 48.283C72.9918 49.5524 73.3598 50.9197 73.4765 52.3196H72.5435C72.0006 52.3196 71.5604 52.7597 71.5604 53.3027C71.5604 53.8456 72.0006 54.2857 72.5435 54.2857H73.4765C73.3613 55.6853 72.995 57.0526 72.3951 58.3223L71.5909 57.8583C71.1211 57.5912 70.5239 57.7533 70.2537 58.2213C69.9834 58.6893 70.1416 59.2877 70.6078 59.561L71.4149 60.027C70.6103 61.1795 69.6078 62.1804 68.4539 62.9831Z" fill="#33C5F3"/>
<path d="M62.7123 53.0303V46.4211C62.7123 45.8781 62.2722 45.438 61.7292 45.438C61.1863 45.438 60.7461 45.8781 60.7461 46.4211V53.3026C60.7462 53.481 60.7948 53.6561 60.8867 53.8089L63.836 58.7243C64.1203 59.1787 64.7162 59.3216 65.1757 59.0455C65.6351 58.7694 65.7887 58.1761 65.521 57.7118L62.7123 53.0303Z" fill="#33C5F3"/>
<path d="M42.1877 33.3531C42.1877 33.9575 42.6754 34.4475 43.277 34.4475C43.8785 34.4475 44.3662 33.9575 44.3662 33.3531V31.7114H47.6338C48.2354 31.7114 48.723 31.2214 48.723 30.6169C48.723 30.0125 48.2354 29.5225 47.6338 29.5225H44.3662V27.8808H47.6338C50.0362 27.8808 51.9906 25.917 51.9906 23.503C51.9906 21.0891 50.0362 19.1252 47.6338 19.1252H43.277C42.6754 19.1252 42.1877 19.6153 42.1877 20.2197V29.5225H41.0985C40.497 29.5225 40.0093 30.0125 40.0093 30.6169C40.0093 31.2214 40.497 31.7114 41.0985 31.7114H42.1877V33.3531ZM49.8122 23.503C49.8122 24.71 48.835 25.6919 47.6338 25.6919H44.3662V21.3141H47.6338C48.8349 21.3141 49.8122 22.2961 49.8122 23.503Z" fill="#33C5F3"/>
</svg>
