<svg width="100" height="100" viewBox="0 0 100 100" fill="none" xmlns="http://www.w3.org/2000/svg">
<path d="M82.8999 64.9V64.8C81.9999 51.4 73.3999 40.1 60.8999 35.8V9.1C62.3999 8.4 63.3999 7 63.3999 5.2V4.3C63.2999 1.9 61.4999 0 58.9999 0H40.9999C38.7999 0 37.0999 1.6 36.6999 3.9V5.2C36.6999 6.9 37.6999 8.4 39.1999 9.1V35.7C28.6999 39.3 20.7999 47.9 17.9999 58.8V59.1C13.6999 76.8 24.4999 94.7 41.9999 99C44.6999 99.7 47.3999 100 50.0999 100C55.9999 100 61.8999 98.4 67.0999 95.3C74.5999 90.8 79.8999 83.6 81.9999 75.1C82.6999 72.7 83.0999 69.9 83.0999 67C82.9999 66.3 82.9999 65.6 82.8999 64.9ZM39.6999 4.3C39.7999 3.6 40.2999 3 40.9999 3H58.9999C59.7999 3 60.2999 3.5 60.2999 4.3V5.2C60.2999 6 59.7999 6.5 58.9999 6.5H40.9999C40.2999 6.5 39.6999 6 39.6999 5.2V4.3ZM41.0999 38.2C41.6999 38 42.1999 37.4 42.1999 36.8V9.5H57.9999V36.9C57.9999 37.6 58.3999 38.1 59.0999 38.3C70.5999 41.9 78.6999 52 79.7999 64.2C78.6999 64.4 71.9999 65.5 68.7999 65.6C65.2999 65.7 61.2999 64.9 55.8999 63.7C53.0999 63.1 48.0999 61.6 43.2999 60.1C38.7999 58.8 34.5999 57.5 32.7999 57.1C29.4999 56.4 24.9999 56.7 21.4999 57.4C24.5999 48.2 31.6999 41.1 41.0999 38.2ZM65.3999 92.7C58.4999 96.8 50.3999 98 42.5999 96.1C26.8999 92.2 17.2999 76.5 20.5999 60.7C23.7999 59.8 28.7999 59.3 32.1999 60C33.8999 60.4 37.9999 61.6 42.3999 62.9C47.2999 64.4 52.3999 65.9 55.1999 66.5C60.4999 67.7 64.4999 68.5 68.1999 68.5H68.8999C72.1999 68.4 78.2999 67.4 80.0999 67.1C80.0999 69.6 79.7999 72 79.0999 74.1C77.0999 82 72.2999 88.6 65.3999 92.7Z" fill="#33C5F3"/>
<path d="M58.6004 70.3C54.9004 70.3 52.0004 73.2 52.0004 76.9C52.0004 80.6 54.9004 83.5 58.6004 83.5C62.3004 83.5 65.2004 80.6 65.2004 76.9C65.2004 73.2 62.3004 70.3 58.6004 70.3ZM58.6004 81.3C56.1004 81.3 54.2004 79.3 54.2004 76.8C54.2004 74.3 56.1004 72.3 58.6004 72.3C61.1004 72.3 63.0004 74.3 63.0004 76.8C63.0004 79.4 61.1004 81.3 58.6004 81.3ZM44.9004 83.5C42.9004 83.5 41.4004 85 41.4004 87C41.4004 89 42.9004 90.5 44.9004 90.5C46.8004 90.5 48.4004 89 48.4004 87C48.4004 85 46.9004 83.5 44.9004 83.5ZM44.9004 88.3C44.1004 88.3 43.6004 87.8 43.6004 87C43.6004 86.2 44.1004 85.7 44.9004 85.7C45.7004 85.7 46.2004 86.2 46.2004 87C46.2004 87.6 45.7004 88.3 44.9004 88.3ZM36.2004 68C32.9004 68 30.4004 70.6 30.4004 73.9C30.4004 77.2 33.0004 79.8 36.2004 79.8C39.4004 79.8 41.9004 77.2 42.1004 74C42.0004 70.6 39.4004 68 36.2004 68ZM36.2004 77.4C34.1004 77.4 32.5004 75.8 32.5004 73.7C32.5004 71.6 34.1004 70 36.2004 70C38.3004 70 39.9004 71.6 39.9004 73.7C39.9004 75.8 38.2004 77.4 36.2004 77.4Z" fill="#33C5F3"/>
</svg>
