<svg width="100" height="100" viewBox="0 0 100 100" fill="none" xmlns="http://www.w3.org/2000/svg">
<path d="M99.6153 24.872C99.357 24.5188 98.9969 24.2529 98.5833 24.11C89.9571 21.3823 80.8615 20.4602 71.8633 21.401C61.9833 22.445 54.3533 25.956 49.7983 31.513C47.2319 34.722 45.6281 38.593 45.1731 42.6768C44.718 46.7606 45.4303 50.8897 47.2273 54.585C47.6113 55.347 48.0573 56.09 48.5433 56.812C46.8666 60.4938 45.5317 64.3219 44.5553 68.248C43.8713 67.4174 43.1624 66.6076 42.4293 65.82C42.5303 65.6 42.6323 65.359 42.7333 65.118C45.0813 59.119 43.6233 51.997 39.0893 47.403C35.1823 43.43 29.0693 41.243 21.4173 41.123C14.5073 41.023 7.65071 42.3479 1.27532 45.015C0.243324 45.456 -0.242676 46.62 0.202324 47.643C0.385324 48.045 0.668324 48.386 1.05232 48.606C4.89932 50.853 7.89532 54.304 9.51432 58.437C9.93932 59.541 10.2643 60.684 10.6073 61.887C10.8703 62.791 11.1343 63.734 11.4573 64.657C11.9373 66.1658 12.6184 67.6031 13.4823 68.93C16.3563 73.243 21.1343 75.691 26.4983 75.691C29.1036 75.6903 31.6777 75.125 34.0435 74.034C36.4093 72.9429 38.5104 71.3521 40.2023 69.371C41.243 70.5355 42.2294 71.7474 43.1583 73.003C47.9153 79.483 49.2913 84.779 49.3123 84.84L53.2393 83.856C53.1793 83.636 51.9433 78.801 47.7733 72.561C48.5631 68.3211 49.8052 64.178 51.4783 60.203C55.4663 63.934 60.9513 66.181 66.7813 66.282H67.1663C74.8793 66.282 81.5393 62.49 85.0403 56.07C85.9103 54.465 86.5793 52.659 87.1253 50.352C87.4293 49.108 87.6723 47.844 87.8953 46.64C88.1983 44.995 88.5023 43.43 88.9273 41.905C90.6106 36.13 94.2088 31.0997 99.1303 27.641C99.5602 27.3369 99.8525 26.8752 99.9435 26.3566C100.035 25.8379 99.9169 25.3043 99.6163 24.872H99.6153ZM39.2713 62.71C34.2113 58.056 27.2063 53.301 17.7333 49.79L16.3163 53.542C25.7903 57.052 32.5913 61.868 37.3683 66.462C35.2233 69.271 31.8023 71.217 27.9553 71.618C23.3003 72.12 19.2513 70.334 16.8423 66.723C16.1774 65.687 15.6531 64.5672 15.2833 63.393C15.0003 62.55 14.7573 61.707 14.4933 60.804C14.1293 59.561 13.7653 58.277 13.2793 57.013C11.8423 53.281 9.45332 49.991 6.35632 47.423C11.1865 45.8585 16.2395 45.0928 21.3163 45.156C25.8913 45.236 32.1663 46.159 36.1543 50.211C39.3123 53.421 40.5263 58.417 39.2713 62.711V62.71ZM85.0003 40.842C84.5143 42.527 84.1903 44.252 83.8873 45.918C83.6643 47.142 83.4413 48.305 83.1573 49.449C82.6923 51.395 82.1463 52.899 81.4573 54.184C78.6443 59.36 73.1783 62.369 66.8423 62.269C61.5183 62.189 56.5593 59.922 53.2793 56.29C53.2793 56.27 53.2993 56.25 53.2993 56.23C55.9723 50.994 59.2713 46.58 63.1173 43.11C67.8471 38.8278 73.6332 35.8843 79.8793 34.583L79.0293 30.65C72.0767 32.0858 65.6375 35.3634 60.3853 40.14C56.6603 43.51 53.4213 47.643 50.7093 52.498C47.9153 46.62 48.8063 39.077 52.9353 34.041C57.8343 28.062 66.1543 26.036 72.2873 25.374C74.4124 25.1503 76.5475 25.0365 78.6843 25.033C83.7243 25.033 88.7443 25.655 93.6443 26.858C89.5143 30.65 86.5183 35.485 85.0003 40.842Z" fill="#33C5F3"/>
</svg>
