<svg width="100" height="100" viewBox="0 0 100 100" fill="none" xmlns="http://www.w3.org/2000/svg">
<path d="M62.2618 18.288C65.8958 18.288 68.8528 15.301 68.8528 11.63C68.8528 8.82898 65.5628 3.52298 64.1488 1.37198C63.9434 1.0583 63.6632 0.800653 63.3335 0.622243C63.0037 0.443833 62.6347 0.350267 62.2598 0.349976C61.5018 0.349976 60.7918 0.733976 60.3718 1.37198C58.9568 3.52398 55.6668 8.82898 55.6668 11.63C55.6688 15.301 58.6248 18.288 62.2608 18.288H62.2618ZM62.2618 7.00598C63.4488 9.11398 64.2988 10.976 64.3228 11.63C64.3247 12.179 64.1088 12.7064 63.7224 13.0965C63.3361 13.4865 62.8108 13.7075 62.2618 13.711C61.7136 13.7078 61.1889 13.4876 60.8027 13.0985C60.4164 12.7094 60.2 12.1832 60.2008 11.635C60.2248 10.977 61.0748 9.11498 62.2618 7.00498V7.00598ZM47.2128 34.96C50.8468 34.96 53.8038 31.973 53.8038 28.302C53.8038 25.5 50.5138 20.194 49.0988 18.044C48.8938 17.7305 48.6142 17.473 48.285 17.2944C47.9557 17.1158 47.5873 17.0219 47.2128 17.021C46.838 17.0215 46.4691 17.1153 46.1396 17.2939C45.81 17.4725 45.53 17.7303 45.3248 18.044C43.9098 20.195 40.6188 25.501 40.6188 28.302C40.6198 31.972 43.5778 34.96 47.2128 34.96ZM47.2128 23.677C48.3988 25.785 49.2488 27.647 49.2728 28.301C49.2749 28.85 49.0593 29.3775 48.6731 29.7678C48.287 30.158 47.7618 30.3793 47.2128 30.383C46.6644 30.3801 46.1395 30.16 45.753 29.7709C45.3666 29.3818 45.15 28.8554 45.1508 28.307C45.1768 27.649 46.0268 25.787 47.2128 23.677ZM67.6558 24.908C66.2408 27.059 62.9518 32.365 62.9518 35.166C62.9518 38.836 65.9088 41.824 69.5428 41.824C73.1768 41.824 76.1338 38.836 76.1338 35.166C76.1338 32.364 72.8438 27.058 71.4298 24.908C71.2245 24.5944 70.9445 24.3369 70.6149 24.1585C70.2853 23.9801 69.9166 23.8864 69.5418 23.886C68.7838 23.886 68.0758 24.269 67.6558 24.908ZM71.6038 35.166C71.6059 35.7152 71.3902 36.2428 71.0038 36.6331C70.6174 37.0234 70.092 37.2445 69.5428 37.248C68.9946 37.2448 68.4699 37.0246 68.0837 36.6355C67.6974 36.2465 67.481 35.7202 67.4818 35.172C67.5058 34.514 68.3558 32.651 69.5428 30.542C70.7298 32.651 71.5798 34.512 71.6038 35.166ZM79.9918 70.66C79.8948 53.674 66.2068 39.884 49.3958 39.884C32.5258 39.884 18.8008 53.771 18.8008 70.841C18.7992 71.1401 18.8566 71.4366 18.9696 71.7135C19.0827 71.9904 19.2492 72.2424 19.4596 72.4549C19.67 72.6675 19.9203 72.8365 20.196 72.9524C20.4718 73.0682 20.7677 73.1285 21.0668 73.13C21.3658 73.1284 21.6616 73.0679 21.9373 72.9521C22.2129 72.8362 22.4631 72.6671 22.6734 72.4546C22.8837 72.242 23.0501 71.9901 23.1631 71.7133C23.2761 71.4364 23.3334 71.14 23.3318 70.841C23.3318 68.142 25.4488 66.028 28.1488 66.028C30.7918 66.028 32.9418 68.221 32.9418 70.915C32.9418 72.179 33.9568 73.204 35.2078 73.204C35.5069 73.2025 35.8028 73.1422 36.0786 73.0264C36.3544 72.9105 36.6046 72.7415 36.815 72.5289C37.0255 72.3164 37.192 72.0644 37.305 71.7875C37.418 71.5106 37.4754 71.2141 37.4738 70.915C37.4738 68.221 39.6238 66.027 42.2668 66.027C44.9578 66.027 47.1468 68.173 47.1468 70.809V70.81L47.1638 89.514C47.1638 92.237 45.0038 94.454 42.3478 94.454C39.7048 94.454 37.5538 92.26 37.5538 89.565C37.5538 88.302 36.5398 87.276 35.2878 87.276C34.9887 87.2774 34.6928 87.3378 34.417 87.4536C34.1413 87.5694 33.891 87.7384 33.6806 87.951C33.4702 88.1636 33.3037 88.4155 33.1906 88.6925C33.0776 88.9694 33.0202 89.2659 33.0218 89.565C33.0218 94.785 37.2048 99.03 42.3478 99.03C47.5018 99.03 51.6958 94.76 51.6958 89.512L51.6778 70.809C51.6778 68.128 53.8078 66.028 56.5258 66.028C59.1688 66.028 61.3198 68.221 61.3198 70.915C61.3198 72.179 62.3348 73.204 63.5858 73.204C63.885 73.2027 64.1809 73.1424 64.4567 73.0266C64.7326 72.9108 64.9829 72.7418 65.1933 72.5292C65.4038 72.3166 65.5703 72.0646 65.6833 71.7877C65.7962 71.5107 65.8535 71.2141 65.8518 70.915C65.8518 68.221 68.0018 66.027 70.6468 66.027C73.3468 66.027 75.4628 68.142 75.4628 70.841C75.4628 72.105 76.4778 73.13 77.7288 73.13H77.7348C78.034 73.1287 78.3299 73.0684 78.6057 72.9526C78.8816 72.8368 79.1319 72.6678 79.3423 72.4552C79.5528 72.2426 79.7193 71.9906 79.8323 71.7136C79.9453 71.4367 80.0025 71.1401 80.0008 70.841L79.9918 70.661V70.66ZM70.6438 61.45C67.8258 61.45 65.2958 62.725 63.5848 64.738C61.8738 62.725 59.3438 61.449 56.5248 61.449C55.1731 61.4487 53.8372 61.7408 52.609 62.3053C51.3807 62.8697 50.289 63.6931 49.4088 64.719C48.5239 63.692 47.4277 62.8681 46.195 62.3038C44.9624 61.7394 43.6225 61.4478 42.2668 61.449C39.4488 61.449 36.9188 62.725 35.2078 64.738C33.4968 62.725 30.9658 61.449 28.1478 61.449C27.0079 61.4475 25.8775 61.657 24.8138 62.067C28.3948 51.821 38.0638 44.462 49.3978 44.462C60.7318 44.462 70.3998 51.822 73.9818 62.067C72.9165 61.6578 71.785 61.4483 70.6438 61.449V61.45Z" fill="#33C5F3"/>
</svg>
