<svg width="100" height="100" viewBox="0 0 100 100" fill="none" xmlns="http://www.w3.org/2000/svg">
<g clip-path="url(#clip0_210_549)">
<path d="M22.4996 78.5C18.3996 78.5 15.0996 81.8 15.0996 85.9C15.0996 90 18.3996 93.3 22.4996 93.3C26.5996 93.3 29.8996 90 29.8996 85.9C29.8996 81.8 26.5996 78.5 22.4996 78.5ZM22.4996 90.3C19.9996 90.3 17.9996 88.3 17.9996 85.9C17.9996 83.5 19.9996 81.5 22.4996 81.5C24.9996 81.5 26.9996 83.5 26.9996 85.9C26.8996 88.3 24.8996 90.3 22.4996 90.3ZM79.2996 79.8H82.2996V91.9H79.2996V79.8Z" fill="#33C5F3"/>
<path d="M87.8 71.8H56.8L87.1 48.8C88.3 47.9 89.1 46.5 89.3 45C89.5 43.5 89.1 42 88.1 40.7L77.5 27C76.6 25.8 75.2 25 73.6 24.8C72.1 24.6 70.5 25 69.3 25.9L53.2 38.2L63.1 14.7C63.7 13.3 63.7 11.7 63.1 10.3C62.5 8.89997 61.4 7.79997 59.9 7.19997L43.8 0.399973C40.8 -0.800027 37.4 0.599973 36.2 3.49997L8.1 70.3C7.6 71.5 7.6 72.8 7.9 74.1C7.3 74.9 7 75.9 7 76.9V94.8C7 97.7 9.3 100 12.2 100H87.8C90.7 100 93 97.7 93 94.8V76.9C93 74.1 90.7 71.8 87.8 71.8V71.8ZM24.3 39.5L42.5 47.5L32.2 55.4L19.8 50.3L24.3 39.5V39.5ZM29.7 26.5L51.2 35.1L47.7 43.4L45.1 45.4L25.4 36.7L29.7 26.5V26.5ZM35.4 13.1L56.8 22L52.4 32.5L30.9 23.9L35.4 13.1V13.1ZM63.7 33.9L77.7 52.2L68.7 59.1L54.7 40.9L63.7 33.9V33.9ZM66.2 60.9L57 67.9L43.5 50.4L50.8 44.8C51.3 44.4 52.7 43.5 52.6 42.9L66.2 60.9V60.9ZM29.7 61L38 71.8H15.6L29.7 61V61ZM41.8 71.8L32 59.2L41.1 52.3L54.6 69.7L53.8 70.3C53.3 70.7 52.2 71.5 51.7 71.8H41.8ZM71.1 28.3C71.7 27.8 72.5 27.6 73.2 27.7C74 27.8 74.6 28.2 75.1 28.8L85.8 42.6C86.3 43.2 86.5 43.9 86.4 44.6C86.3 45.3 85.9 46 85.3 46.4L80.1 50.4L66.1 32.1L71.1 28.3V28.3ZM38.9 4.69997C39.5 3.29997 41.2 2.59997 42.6 3.19997L58.8 9.89997C59.5 10.2 60 10.7 60.3 11.4C60.6 12.1 60.6 12.8 60.3 13.5L58 19.2L36.6 10.3L38.9 4.69997V4.69997ZM18.6 53L29.4 57.5L10.7 71.7C10.7 71.6 10.7 71.5 10.8 71.4L18.6 53ZM90 94.8C90 96 89 97 87.8 97H12.2C11 97 10 96 10 94.8V76.9C10 75.7 11 74.7 12.2 74.7H87.8C89 74.7 90 75.7 90 76.9V94.8V94.8Z" fill="#33C5F3"/>
</g>
<defs>
<clipPath id="clip0_210_549">
<rect width="100" height="100" fill="white"/>
</clipPath>
</defs>
</svg>
