<svg width="100" height="100" viewBox="0 0 100 100" fill="none" xmlns="http://www.w3.org/2000/svg">
<path d="M51.6541 99.57C67.4361 89.345 78.0101 78.735 84.2021 66C90.3941 53.265 92.1521 38.499 90.3021 19.961C90.1541 18.48 89.055 17.472 87.618 17.274C72.445 15.306 63.1091 11.805 52.1231 0.87C50.9631 -0.29 49.0391 -0.29 47.8791 0.87C36.8931 11.805 27.5581 15.306 12.3841 17.274C10.9481 17.472 9.84805 18.48 9.70005 19.961C7.85005 38.499 9.60805 53.265 15.8001 66.001C21.9921 78.735 32.5661 89.345 48.3491 99.571C49.2291 100.14 50.7731 100.14 51.6541 99.571V99.57ZM50.0001 4.25C61.2171 15.206 71.1161 18.985 86.4901 21.046C88.1531 38.52 86.4731 52.414 80.6891 64.308C74.8911 76.232 64.9151 86.261 50.0021 95.998C35.0891 86.261 25.1131 76.232 19.3151 64.308C13.5311 52.414 11.8511 38.52 13.5151 21.046C28.8861 18.986 38.7851 15.206 50.0001 4.249V4.25Z" fill="#33C5F3"/>
<path d="M50.0001 88.156C45.9268 85.3323 42.049 82.2365 38.3931 78.89C36.0481 76.74 33.6011 79.834 35.6531 81.66C39.2391 85.026 43.3431 88.283 47.9891 91.499C49.4351 92.495 50.6361 92.45 52.0731 91.456C64.4391 82.886 72.9271 74.044 78.1171 63.578C83.3621 53.002 85.1991 40.854 84.2381 25.74C84.1281 24.044 82.8081 23.156 81.2581 22.884C69.9501 20.898 60.7041 17.195 51.9181 9.56701C50.8131 8.60701 49.1481 8.64201 48.0351 9.60501C38.9421 17.415 30.0041 20.981 18.2661 22.973C17.5968 23.0835 16.9847 23.4177 16.5299 23.921C16.0751 24.4243 15.8044 25.067 15.7621 25.744C15.0201 37.399 15.9471 47.292 18.8121 56.058C19.7661 59.027 23.4941 57.759 22.5551 54.948C19.8781 46.81 18.9841 37.582 19.6151 26.691C31.4951 24.592 40.7111 20.858 50.0001 13.045C59.2751 20.849 68.5251 24.585 80.3861 26.688C81.2021 40.784 79.4621 52.088 74.6191 61.854C69.7601 71.65 61.7351 80 50.0001 88.156Z" fill="#33C5F3"/>
</svg>
