<svg width="40" height="34" viewBox="0 0 40 34" fill="none" xmlns="http://www.w3.org/2000/svg">
<path d="M4.72705 0.693848V30.1836H35.6361V0.693848H4.72705ZM18.5452 27.4081H7.63614V3.46936H18.5452V27.4081ZM32.727 27.4081H21.818V3.46936H32.727V27.4081Z" fill="#FF7678"/>
<path d="M35.8182 30.5306C35.5273 30.5306 35.2727 30.2878 35.2727 30.0102V1.04082H5.09091V28.6224C5.09091 28.9 4.83636 29.1429 4.54545 29.1429C4.25455 29.1429 4 28.9 4 28.6224V0.520408C4 0.242857 4.25455 0 4.54545 0H35.8182C36.1091 0 36.3636 0.242857 36.3636 0.520408V30.0102C36.3636 30.2878 36.1091 30.5306 35.8182 30.5306Z" fill="#1C2947"/>
<path d="M32.909 28.102H21.6363C21.3454 28.102 21.0908 27.8592 21.0908 27.5816V16.4796C21.0908 16.202 21.3454 15.9592 21.6363 15.9592C21.9272 15.9592 22.1817 16.202 22.1817 16.4796V27.0612H32.3635V3.81633H22.1817V14.398C22.1817 14.6755 21.9272 14.9184 21.6363 14.9184C21.3454 14.9184 21.0908 14.6755 21.0908 14.398V3.29592C21.0908 3.01837 21.3454 2.77551 21.6363 2.77551H32.909C33.1999 2.77551 33.4545 3.01837 33.4545 3.29592V27.5816C33.4545 27.8592 33.1999 28.102 32.909 28.102Z" fill="#1C2947"/>
<path d="M18.7274 28.102H7.45463C7.16373 28.102 6.90918 27.8592 6.90918 27.5816V3.29592C6.90918 3.01837 7.16373 2.77551 7.45463 2.77551H18.7274C19.0183 2.77551 19.2728 3.01837 19.2728 3.29592V27.5816C19.2728 27.8592 19.0183 28.102 18.7274 28.102ZM8.00009 27.0612H18.1819V3.81633H8.00009V27.0612Z" fill="#1C2947"/>
<path d="M23.0909 15.2653H20.5455C20.2545 15.2653 20 15.0224 20 14.7449C20 14.4673 20.2545 14.2245 20.5455 14.2245H23.0909C23.3818 14.2245 23.6364 14.4673 23.6364 14.7449C23.6364 15.0224 23.3818 15.2653 23.0909 15.2653Z" fill="#1C2947"/>
<path d="M39.4545 34.0001H8.18182C7.89091 34.0001 7.63636 33.7572 7.63636 33.4797C7.63636 33.2021 7.89091 32.9592 8.18182 32.9592H38.9091V30.8776H1.09091V32.9592H5.63636C5.92727 32.9592 6.18182 33.2021 6.18182 33.4797C6.18182 33.7572 5.92727 34.0001 5.63636 34.0001H0.545455C0.254545 34.0001 0 33.7572 0 33.4797V30.3572C0 30.0796 0.254545 29.8368 0.545455 29.8368H39.4545C39.7455 29.8368 40 30.0796 40 30.3572V33.4797C40 33.7572 39.7455 34.0001 39.4545 34.0001Z" fill="#1C2947"/>
<path d="M10.3634 15.2655C10.218 15.2655 10.0725 15.2308 9.96344 15.1267C9.74526 14.9185 9.74526 14.6063 9.96344 14.3981L14.6907 9.88793C14.9089 9.67977 15.2362 9.67977 15.4544 9.88793C15.6725 10.0961 15.6725 10.4083 15.4544 10.6165L10.7271 15.1267C10.6544 15.2308 10.5089 15.2655 10.3634 15.2655Z" fill="#8BD9F2"/>
<path d="M13.091 16.8266C12.9455 16.8266 12.8001 16.7919 12.691 16.6879C12.4728 16.4797 12.4728 16.1675 12.691 15.9593L14.3273 14.3981C14.5455 14.1899 14.8728 14.1899 15.091 14.3981C15.3092 14.6062 15.3092 14.9185 15.091 15.1266L13.4546 16.6879C13.3819 16.7919 13.2364 16.8266 13.091 16.8266Z" fill="#8BD9F2"/>
<path d="M25.2726 18.7348C25.1272 18.7348 24.9817 18.7001 24.8726 18.5961C24.6544 18.3879 24.6544 18.0757 24.8726 17.8675L29.5999 13.3573C29.8181 13.1491 30.1454 13.1491 30.3635 13.3573C30.5817 13.5655 30.5817 13.8777 30.3635 14.0859L25.6363 18.5961C25.5635 18.7001 25.4181 18.7348 25.2726 18.7348Z" fill="#8BD9F2"/>
<path d="M28.0002 20.2961C27.8547 20.2961 27.7093 20.2614 27.6002 20.1574C27.382 19.9492 27.382 19.6369 27.6002 19.4288L29.2365 17.8675C29.4547 17.6594 29.782 17.6594 30.0002 17.8675C30.2183 18.0757 30.2183 18.388 30.0002 18.5961L28.3638 20.1574C28.2911 20.2614 28.1456 20.2961 28.0002 20.2961Z" fill="#8BD9F2"/>
</svg>
