<svg width="90" height="90" viewBox="0 0 90 90" fill="none" xmlns="http://www.w3.org/2000/svg">
<path d="M23.2605 25.5312H30.3391C30.7985 25.5312 31.1705 25.9038 31.1705 26.3631C31.1705 26.8224 30.7985 27.1945 30.3391 27.1945H23.2605C21.8284 27.1945 20.6632 28.3596 20.6632 29.7917V31.3837H73.3367V29.7917C73.3367 28.3596 72.1716 27.1945 70.7395 27.1945H33.666C33.2068 27.1945 32.8342 26.8224 32.8342 26.3631C32.8342 25.9038 33.2068 25.5312 33.666 25.5312H70.7395C73.0889 25.5312 75 27.4423 75 29.7917V50.6666C75 51.1258 74.6279 51.4985 74.1682 51.4985C73.7089 51.4985 73.3367 51.1258 73.3367 50.6666V41.7178H20.6632V60.3096C20.6632 61.7416 21.8284 62.9067 23.2605 62.9067H70.7395C72.1716 62.9067 73.3367 61.7416 73.3367 60.3096V53.9936C73.3367 53.5342 73.7089 53.1616 74.1682 53.1616C74.6279 53.1616 75 53.5342 75 53.9936V60.3096C75 62.659 73.0889 64.5706 70.7395 64.5706H23.2605C20.9115 64.5706 19 62.659 19 60.3096V29.7917C19 27.4423 20.9115 25.5312 23.2605 25.5312ZM73.3367 40.0546V33.0475H20.6632V40.0546H73.3367Z" fill="#00C7FF"/>
<path d="M38.407 54.4839C38.407 57.5122 35.9432 59.9762 32.9149 59.9762C32.0822 59.9762 31.2926 59.789 30.5846 59.4558C29.8767 59.789 29.0871 59.9762 28.2544 59.9762C25.2261 59.9762 22.7627 57.5122 22.7627 54.4839C22.7627 51.4556 25.2261 48.9922 28.2544 48.9922C29.0875 48.9922 29.8771 49.1792 30.5846 49.5121C31.2926 49.1792 32.0822 48.9922 32.9149 48.9922C35.9432 48.9922 38.407 51.4556 38.407 54.4839ZM32.0829 54.4839C32.0829 53.2493 31.4951 52.1498 30.5846 51.4493C29.6742 52.1498 29.0862 53.2493 29.0862 54.4839C29.0862 55.7191 29.6742 56.8184 30.5846 57.5191C31.4951 56.8184 32.0829 55.7191 32.0829 54.4839ZM24.4259 54.4839C24.4259 56.5955 26.1434 58.313 28.2544 58.313C28.4835 58.313 28.7073 58.2915 28.9257 58.2527C27.9951 57.2682 27.423 55.9422 27.423 54.4839C27.423 53.0257 27.9951 51.6996 28.9257 50.7153C28.7073 50.6769 28.4835 50.6554 28.2544 50.6554C26.1434 50.6554 24.4259 52.3729 24.4259 54.4839ZM32.9149 50.6554C32.6859 50.6554 32.4619 50.6769 32.2437 50.7157C33.1742 51.7 33.7467 53.0257 33.7467 54.4843C33.7467 55.9422 33.1742 57.2682 32.2437 58.2527C32.4619 58.2915 32.6859 58.313 32.9149 58.313C35.0259 58.313 36.7435 56.5955 36.7435 54.4843C36.7438 52.3729 35.0259 50.6554 32.9149 50.6554Z" fill="#00C7FF"/>
<path d="M69.7446 46.5116H63.6755C63.2158 46.5116 62.8438 46.1394 62.8438 45.6802C62.8438 45.2208 63.2158 44.8484 63.6755 44.8484H69.7446C70.2043 44.8484 70.5765 45.2208 70.5765 45.6802C70.5765 46.1394 70.2043 46.5116 69.7446 46.5116Z" fill="#00C7FF"/>
<path d="M44.889 46.5116C44.4296 46.5116 44.0576 46.1394 44.0576 45.6802C44.0576 45.2208 44.4296 44.8484 44.889 44.8484H50.9585C51.4177 44.8484 51.7903 45.2208 51.7903 45.6802C51.7903 46.1394 51.4177 46.5116 50.9585 46.5116H44.889Z" fill="#00C7FF"/>
<path d="M54.2825 46.5116C53.8227 46.5116 53.4507 46.1394 53.4507 45.6802C53.4507 45.2208 53.8227 44.8484 54.2825 44.8484H60.3515C60.8108 44.8484 61.1833 45.2208 61.1833 45.6802C61.1833 46.1394 60.8108 46.5116 60.3515 46.5116H54.2825Z" fill="#00C7FF"/>
<path d="M35.496 44.8484H41.5655C42.0247 44.8484 42.3969 45.2208 42.3969 45.6802C42.3969 46.1394 42.0247 46.5116 41.5655 46.5116H35.496C35.0366 46.5116 34.6646 46.1394 34.6646 45.6802C34.6646 45.2208 35.0366 44.8484 35.496 44.8484Z" fill="#00C7FF"/>
<path d="M69.7447 54.5071H50.7151C50.2557 54.5071 49.8833 54.1347 49.8833 53.6753C49.8833 53.2161 50.2557 52.8435 50.7151 52.8435H69.7447C70.2044 52.8435 70.5765 53.2161 70.5765 53.6753C70.5765 54.1347 70.2044 54.5071 69.7447 54.5071Z" fill="#00C7FF"/>
<path d="M69.7445 58.4089H58.7352C58.2755 58.4089 57.9033 58.0363 57.9033 57.5769C57.9033 57.1177 58.2755 56.7451 58.7352 56.7451H69.7445C70.2042 56.7451 70.5763 57.1177 70.5763 57.5769C70.5763 58.0363 70.2042 58.4089 69.7445 58.4089Z" fill="#00C7FF"/>
<path d="M45 89C69.3005 89 89 69.3005 89 45C89 20.6995 69.3005 1 45 1C20.6995 1 1 20.6995 1 45C1 69.3005 20.6995 89 45 89Z" stroke="#33C5F3" stroke-width="2"/>
</svg>
