<svg width="100" height="100" viewBox="0 0 100 100" fill="none" xmlns="http://www.w3.org/2000/svg">
<path d="M23.6 44.5C23.2 44.5 22.8 44.4 22.5 44.1L9.3 30.8C8.7 30.2 8.7 29.3001 9.3 28.7001C9.9 28.1 10.8 28.1 11.4 28.7001L24.7 42C25.3 42.6 25.3 43.5 24.7 44.1C24.4 44.4 24 44.5 23.6 44.5ZM50 33.1C49.2 33.1 48.5 32.4 48.5 31.6V12.8C48.5 12 49.2 11.3 50 11.3C50.8 11.3 51.5 12 51.5 12.8V31.5C51.5 32.4 50.8 33.1 50 33.1ZM76.2 44.7001C75.8 44.7001 75.4 44.6 75.1 44.3C74.5 43.7001 74.5 42.8001 75.1 42.2001L88.4 28.9C89 28.3 89.9 28.3 90.5 28.9C91.1 29.5 91.1 30.4 90.5 31L77.2 44.2001C76.9 44.5 76.5 44.7001 76.2 44.7001ZM67.4 32.3C67.1 32.3 66.9 32.2 66.7 32.1C66 31.7 65.7 30.8 66.2 30.1L69.8 23.9C70.2 23.2 71.1 22.9 71.8 23.4C72.5 23.8 72.8 24.7 72.3 25.4L68.7 31.6C68.4 32 67.9 32.3 67.4 32.3ZM33.2 32.1C32.7 32.1 32.2 31.8 31.9 31.3L27.8 24.2C27.4 23.5 27.6 22.6 28.3 22.2C29 21.8 29.9 22 30.3 22.7L34.4 29.8C34.8 30.5 34.6 31.4 33.9 31.8C33.7 32 33.4 32.1 33.2 32.1ZM74 70.7C73.2 70.7 72.5 70 72.5 69.2C72.5 56.7 62.3 46.5 49.8 46.5C37.3 46.5 27.1 56.7 27.1 69.2C27.1 70 26.4 70.7 25.6 70.7C24.8 70.7 24.1 70 24.1 69.2C24.1 55 35.6 43.5 49.8 43.5C64 43.5 75.5 55 75.5 69.2C75.5 70 74.9 70.7 74 70.7ZM97.8 86.4H2C1.2 86.4 0.5 85.7001 0.5 84.9C0.5 84.1 1.2 83.4 2 83.4H97.9C98.7 83.4 99.4 84.1 99.4 84.9C99.4 85.7001 98.7 86.4 97.8 86.4Z" fill="#33C5F3"/>
</svg>
