<svg width="100" height="100" viewBox="0 0 100 100" fill="none" xmlns="http://www.w3.org/2000/svg">
<path d="M53.13 69.48V10.416C53.13 4.687 48.435 0 42.696 0C36.956 0 32.26 4.688 32.26 10.417V69.479C28.4 72.604 26 77.396 26 82.396C26 91.562 33.513 99.062 42.696 99.062C51.878 99.062 59.287 91.562 59.287 82.396C59.287 77.396 56.991 72.604 53.13 69.479V69.48ZM42.696 95.52C35.496 95.52 29.652 89.687 29.652 82.5C29.652 77.917 32.052 73.75 35.913 71.354V10.521C35.9129 9.61711 36.091 8.72208 36.4372 7.88712C36.7834 7.05216 37.2909 6.29369 37.9306 5.6551C38.5703 5.01651 39.3297 4.51036 40.1652 4.16561C41.0008 3.82086 41.8961 3.64429 42.8 3.646C46.557 3.646 49.687 6.666 49.687 10.521V71.354C53.444 73.75 55.947 77.917 55.947 82.5C55.739 89.687 49.896 95.52 42.696 95.52Z" fill="#33C5F3"/>
<path d="M45.9302 73.542V49.687C45.9302 47.917 44.4702 46.458 42.6962 46.458C40.9222 46.458 39.4612 47.917 39.4612 49.688V73.542C35.8092 74.896 33.2012 78.333 33.2012 82.396C33.2012 87.604 37.4782 91.875 42.6962 91.875C47.9132 91.875 52.1912 87.605 52.1912 82.395C52.1912 78.333 49.5832 74.895 45.9312 73.542H45.9302ZM73.7912 10.625H56.7842V14.167H73.7902V10.625H73.7912ZM64.8182 22.396H56.7832V25.937H64.8182V22.396ZM73.7912 34.27H56.7842V37.812H73.7902V34.271L73.7912 34.27ZM64.8182 46.041H56.7832V49.583H64.8182V46.042V46.041ZM73.7912 57.813H56.7842V61.354H73.7902V57.813H73.7912Z" fill="#33C5F3"/>
</svg>
